<svg width="169" height="14" viewBox="0 0 169 14" fill="none" xmlns="http://www.w3.org/2000/svg">
<path d="M3.98438 7.52539H1.55273V6.91016H3.98438C4.49219 6.91016 4.9043 6.82812 5.2207 6.66406C5.54102 6.49609 5.77344 6.26953 5.91797 5.98438C6.06641 5.69922 6.14062 5.37891 6.14062 5.02344C6.14062 4.67578 6.06641 4.35547 5.91797 4.0625C5.77344 3.76953 5.54102 3.53516 5.2207 3.35938C4.9043 3.17969 4.49219 3.08984 3.98438 3.08984H1.80469V11H1.08398V2.46875H3.98438C4.60938 2.46875 5.13477 2.57617 5.56055 2.79102C5.99023 3.00586 6.31445 3.30469 6.5332 3.6875C6.75195 4.07031 6.86133 4.51172 6.86133 5.01172C6.86133 5.53516 6.75195 5.98633 6.5332 6.36523C6.31445 6.74023 5.99219 7.02734 5.56641 7.22656C5.14062 7.42578 4.61328 7.52539 3.98438 7.52539ZM10.6816 11.1172C10.2676 11.1172 9.88672 11.041 9.53906 10.8887C9.19531 10.7363 8.89453 10.5215 8.63672 10.2441C8.38281 9.9668 8.18555 9.63867 8.04492 9.25977C7.9082 8.87695 7.83984 8.45898 7.83984 8.00586V7.75391C7.83984 7.26562 7.91211 6.82422 8.05664 6.42969C8.20117 6.03516 8.40039 5.69727 8.6543 5.41602C8.9082 5.13477 9.19727 4.91992 9.52148 4.77148C9.84961 4.61914 10.1934 4.54297 10.5527 4.54297C10.9551 4.54297 11.3125 4.61523 11.625 4.75977C11.9375 4.90039 12.1992 5.10156 12.4102 5.36328C12.625 5.62109 12.7871 5.92773 12.8965 6.2832C13.0059 6.63477 13.0605 7.02344 13.0605 7.44922V7.87695H8.26172V7.2793H12.3633V7.19727C12.3555 6.8418 12.2832 6.50977 12.1465 6.20117C12.0137 5.88867 11.8145 5.63477 11.5488 5.43945C11.2832 5.24414 10.9512 5.14648 10.5527 5.14648C10.2559 5.14648 9.98242 5.20898 9.73242 5.33398C9.48633 5.45898 9.27344 5.63867 9.09375 5.87305C8.91797 6.10352 8.78125 6.37891 8.68359 6.69922C8.58984 7.01562 8.54297 7.36719 8.54297 7.75391V8.00586C8.54297 8.35742 8.59375 8.68555 8.69531 8.99023C8.80078 9.29102 8.94922 9.55664 9.14062 9.78711C9.33594 10.0176 9.56641 10.1973 9.83203 10.3262C10.0977 10.4551 10.3906 10.5195 10.7109 10.5195C11.0859 10.5195 11.418 10.4512 11.707 10.3145C11.9961 10.1738 12.2559 9.95312 12.4863 9.65234L12.9258 9.99219C12.7891 10.1953 12.6172 10.3828 12.4102 10.5547C12.207 10.7266 11.9629 10.8633 11.6777 10.9648C11.3926 11.0664 11.0605 11.1172 10.6816 11.1172ZM15.1406 5.70898V11H14.4434V4.66016H15.123L15.1406 5.70898ZM17.3848 4.61328L17.3672 5.25781C17.2891 5.24609 17.2129 5.23633 17.1387 5.22852C17.0645 5.2207 16.9844 5.2168 16.8984 5.2168C16.5938 5.2168 16.3262 5.27344 16.0957 5.38672C15.8691 5.49609 15.6777 5.65039 15.5215 5.84961C15.3652 6.04492 15.2461 6.27539 15.1641 6.54102C15.082 6.80273 15.0352 7.08398 15.0234 7.38477L14.7656 7.48438C14.7656 7.07031 14.8086 6.68555 14.8945 6.33008C14.9805 5.97461 15.1113 5.66406 15.2871 5.39844C15.4668 5.12891 15.6914 4.91992 15.9609 4.77148C16.2344 4.61914 16.5547 4.54297 16.9219 4.54297C17.0117 4.54297 17.0996 4.55078 17.1855 4.56641C17.2754 4.57812 17.3418 4.59375 17.3848 4.61328ZM22.2832 9.38281C22.2832 9.21094 22.2402 9.04102 22.1543 8.87305C22.0684 8.70508 21.9023 8.55078 21.6562 8.41016C21.4141 8.26953 21.0566 8.15039 20.584 8.05273C20.2324 7.97461 19.918 7.88672 19.6406 7.78906C19.3672 7.69141 19.1367 7.57422 18.9492 7.4375C18.7617 7.30078 18.6191 7.13672 18.5215 6.94531C18.4238 6.75391 18.375 6.52734 18.375 6.26562C18.375 6.03125 18.4258 5.81055 18.5273 5.60352C18.6328 5.39258 18.7812 5.20898 18.9727 5.05273C19.168 4.89258 19.4023 4.76758 19.6758 4.67773C19.9531 4.58789 20.2637 4.54297 20.6074 4.54297C21.0957 4.54297 21.5137 4.62695 21.8613 4.79492C22.2129 4.95898 22.4805 5.18359 22.6641 5.46875C22.8516 5.75391 22.9453 6.07617 22.9453 6.43555H22.248C22.248 6.2168 22.1836 6.00977 22.0547 5.81445C21.9297 5.61914 21.7441 5.45898 21.498 5.33398C21.2559 5.20898 20.959 5.14648 20.6074 5.14648C20.2441 5.14648 19.9492 5.20117 19.7227 5.31055C19.4961 5.41992 19.3301 5.55859 19.2246 5.72656C19.123 5.89453 19.0723 6.06836 19.0723 6.24805C19.0723 6.38867 19.0938 6.51758 19.1367 6.63477C19.1836 6.74805 19.2656 6.85352 19.3828 6.95117C19.5039 7.04883 19.6758 7.14062 19.8984 7.22656C20.1211 7.3125 20.4102 7.39648 20.7656 7.47852C21.2773 7.5918 21.6953 7.73047 22.0195 7.89453C22.3477 8.05469 22.5898 8.25391 22.7461 8.49219C22.9023 8.72656 22.9805 9.01172 22.9805 9.34766C22.9805 9.60938 22.9258 9.84961 22.8164 10.0684C22.707 10.2832 22.5488 10.4688 22.3418 10.625C22.1387 10.7812 21.8926 10.9023 21.6035 10.9883C21.3184 11.0742 20.998 11.1172 20.6426 11.1172C20.1074 11.1172 19.6543 11.0293 19.2832 10.8535C18.916 10.6738 18.6367 10.4395 18.4453 10.1504C18.2578 9.85742 18.1641 9.54688 18.1641 9.21875H18.8613C18.8848 9.54688 18.9883 9.80664 19.1719 9.99805C19.3555 10.1855 19.5801 10.3184 19.8457 10.3965C20.1152 10.4746 20.3809 10.5137 20.6426 10.5137C21.002 10.5137 21.3027 10.4609 21.5449 10.3555C21.7871 10.25 21.9707 10.1113 22.0957 9.93945C22.2207 9.76758 22.2832 9.58203 22.2832 9.38281ZM24.1816 7.92969V7.73633C24.1816 7.27539 24.248 6.84961 24.3809 6.45898C24.5137 6.06836 24.7031 5.73047 24.9492 5.44531C25.1992 5.16016 25.498 4.93945 25.8457 4.7832C26.1934 4.62305 26.5801 4.54297 27.0059 4.54297C27.4355 4.54297 27.8242 4.62305 28.1719 4.7832C28.5195 4.93945 28.8184 5.16016 29.0684 5.44531C29.3184 5.73047 29.5098 6.06836 29.6426 6.45898C29.7754 6.84961 29.8418 7.27539 29.8418 7.73633V7.92969C29.8418 8.39062 29.7754 8.81641 29.6426 9.20703C29.5098 9.59375 29.3184 9.92969 29.0684 10.2148C28.8223 10.5 28.5254 10.7227 28.1777 10.8828C27.8301 11.0391 27.4434 11.1172 27.0176 11.1172C26.5879 11.1172 26.1992 11.0391 25.8516 10.8828C25.5039 10.7227 25.2051 10.5 24.9551 10.2148C24.7051 9.92969 24.5137 9.59375 24.3809 9.20703C24.248 8.81641 24.1816 8.39062 24.1816 7.92969ZM24.8789 7.73633V7.92969C24.8789 8.27734 24.9258 8.60742 25.0195 8.91992C25.1133 9.22852 25.25 9.50391 25.4297 9.74609C25.6094 9.98438 25.832 10.1719 26.0977 10.3086C26.3633 10.4453 26.6699 10.5137 27.0176 10.5137C27.3613 10.5137 27.6641 10.4453 27.9258 10.3086C28.1914 10.1719 28.4141 9.98438 28.5938 9.74609C28.7734 9.50391 28.9082 9.22852 28.998 8.91992C29.0918 8.60742 29.1387 8.27734 29.1387 7.92969V7.73633C29.1387 7.39258 29.0918 7.06641 28.998 6.75781C28.9082 6.44922 28.7715 6.17383 28.5879 5.93164C28.4082 5.68945 28.1855 5.49805 27.9199 5.35742C27.6543 5.2168 27.3496 5.14648 27.0059 5.14648C26.6621 5.14648 26.3574 5.2168 26.0918 5.35742C25.8301 5.49805 25.6074 5.68945 25.4238 5.93164C25.2441 6.17383 25.1074 6.44922 25.0137 6.75781C24.9238 7.06641 24.8789 7.39258 24.8789 7.73633ZM31.9922 6.01367V11H31.2949V4.66016H31.9629L31.9922 6.01367ZM31.834 7.4375L31.5234 7.26172C31.5469 6.88672 31.623 6.53516 31.752 6.20703C31.8809 5.87891 32.0547 5.58984 32.2734 5.33984C32.4961 5.08984 32.7559 4.89453 33.0527 4.75391C33.3535 4.61328 33.6855 4.54297 34.0488 4.54297C34.3652 4.54297 34.6484 4.58594 34.8984 4.67188C35.1484 4.75781 35.3613 4.89453 35.5371 5.08203C35.7129 5.26953 35.8457 5.50977 35.9355 5.80273C36.0293 6.0957 36.0762 6.45312 36.0762 6.875V11H35.373V6.86914C35.373 6.43164 35.3125 6.08984 35.1914 5.84375C35.0703 5.59375 34.8984 5.41602 34.6758 5.31055C34.4531 5.20508 34.1895 5.15234 33.8848 5.15234C33.5488 5.15234 33.2539 5.22656 33 5.375C32.75 5.51953 32.5391 5.70898 32.3672 5.94336C32.1992 6.17383 32.0703 6.42188 31.9805 6.6875C31.8906 6.94922 31.8418 7.19922 31.834 7.4375Z" fill="#F20C78"/>
<path d="M44.6777 9.86328V6.59375C44.6777 6.29297 44.6152 6.0332 44.4902 5.81445C44.3652 5.5957 44.1816 5.42773 43.9395 5.31055C43.6973 5.19336 43.3984 5.13477 43.043 5.13477C42.7148 5.13477 42.4219 5.19336 42.1641 5.31055C41.9102 5.42383 41.709 5.57812 41.5605 5.77344C41.416 5.96484 41.3438 6.17773 41.3438 6.41211L40.6406 6.40625C40.6406 6.16797 40.6992 5.9375 40.8164 5.71484C40.9336 5.49219 41.0996 5.29297 41.3145 5.11719C41.5293 4.94141 41.7852 4.80273 42.082 4.70117C42.3828 4.5957 42.7129 4.54297 43.0723 4.54297C43.5254 4.54297 43.9238 4.61914 44.2676 4.77148C44.6152 4.92383 44.8867 5.15234 45.082 5.45703C45.2773 5.76172 45.375 6.14453 45.375 6.60547V9.66992C45.375 9.88867 45.3906 10.1152 45.4219 10.3496C45.457 10.584 45.5059 10.7773 45.5684 10.9297V11H44.8242C44.7773 10.8594 44.7402 10.6836 44.7129 10.4727C44.6895 10.2578 44.6777 10.0547 44.6777 9.86328ZM44.8418 7.30859L44.8535 7.84766H43.4766C43.1172 7.84766 42.7949 7.88086 42.5098 7.94727C42.2285 8.00977 41.9902 8.10352 41.7949 8.22852C41.5996 8.34961 41.4492 8.49609 41.3438 8.66797C41.2422 8.83984 41.1914 9.03516 41.1914 9.25391C41.1914 9.48047 41.248 9.6875 41.3613 9.875C41.4785 10.0625 41.6426 10.2129 41.8535 10.3262C42.0684 10.4355 42.3223 10.4902 42.6152 10.4902C43.0059 10.4902 43.3496 10.418 43.6465 10.2734C43.9473 10.1289 44.1953 9.93945 44.3906 9.70508C44.5859 9.4707 44.7168 9.21484 44.7832 8.9375L45.0879 9.3418C45.0371 9.53711 44.9434 9.73828 44.8066 9.94531C44.6738 10.1484 44.5 10.3398 44.2852 10.5195C44.0703 10.6953 43.8164 10.8398 43.5234 10.9531C43.2344 11.0625 42.9062 11.1172 42.5391 11.1172C42.125 11.1172 41.7637 11.0391 41.4551 10.8828C41.1504 10.7266 40.9121 10.5137 40.7402 10.2441C40.5723 9.9707 40.4883 9.66211 40.4883 9.31836C40.4883 9.00586 40.5547 8.72656 40.6875 8.48047C40.8203 8.23047 41.0117 8.01953 41.2617 7.84766C41.5156 7.67188 41.8203 7.53906 42.1758 7.44922C42.5352 7.35547 42.9375 7.30859 43.3828 7.30859H44.8418ZM47.9531 6.01367V11H47.2559V4.66016H47.9238L47.9531 6.01367ZM47.7949 7.4375L47.4844 7.26172C47.5078 6.88672 47.584 6.53516 47.7129 6.20703C47.8418 5.87891 48.0156 5.58984 48.2344 5.33984C48.457 5.08984 48.7168 4.89453 49.0137 4.75391C49.3145 4.61328 49.6465 4.54297 50.0098 4.54297C50.3262 4.54297 50.6094 4.58594 50.8594 4.67188C51.1094 4.75781 51.3223 4.89453 51.498 5.08203C51.6738 5.26953 51.8066 5.50977 51.8965 5.80273C51.9902 6.0957 52.0371 6.45312 52.0371 6.875V11H51.334V6.86914C51.334 6.43164 51.2734 6.08984 51.1523 5.84375C51.0312 5.59375 50.8594 5.41602 50.6367 5.31055C50.4141 5.20508 50.1504 5.15234 49.8457 5.15234C49.5098 5.15234 49.2148 5.22656 48.9609 5.375C48.7109 5.51953 48.5 5.70898 48.3281 5.94336C48.1602 6.17383 48.0312 6.42188 47.9414 6.6875C47.8516 6.94922 47.8027 7.19922 47.7949 7.4375ZM57.9727 9.76953V2H58.6758V11H58.0195L57.9727 9.76953ZM53.5723 7.89453V7.77148C53.5723 7.2793 53.6289 6.83594 53.7422 6.44141C53.8555 6.04297 54.0176 5.70312 54.2285 5.42188C54.4434 5.13672 54.7012 4.91992 55.002 4.77148C55.3027 4.61914 55.6426 4.54297 56.0215 4.54297C56.3926 4.54297 56.7207 4.60352 57.0059 4.72461C57.291 4.8457 57.5352 5.01953 57.7383 5.24609C57.9453 5.47266 58.1113 5.74219 58.2363 6.05469C58.3652 6.36719 58.459 6.71484 58.5176 7.09766V8.66211C58.4707 9.02148 58.3848 9.35156 58.2598 9.65234C58.1348 9.94922 57.9688 10.209 57.7617 10.4316C57.5547 10.6504 57.3047 10.8203 57.0117 10.9414C56.7227 11.0586 56.3887 11.1172 56.0098 11.1172C55.6348 11.1172 55.2969 11.0391 54.9961 10.8828C54.6953 10.7266 54.4395 10.5059 54.2285 10.2207C54.0176 9.93164 53.8555 9.58984 53.7422 9.19531C53.6289 8.80078 53.5723 8.36719 53.5723 7.89453ZM54.2754 7.77148V7.89453C54.2754 8.26562 54.3125 8.60938 54.3867 8.92578C54.4609 9.24219 54.5742 9.51758 54.7266 9.75195C54.8789 9.98633 55.0723 10.1699 55.3066 10.3027C55.541 10.4355 55.8184 10.502 56.1387 10.502C56.541 10.502 56.8789 10.4258 57.1523 10.2734C57.4258 10.1172 57.6445 9.91211 57.8086 9.6582C57.9727 9.40039 58.0918 9.11914 58.166 8.81445V6.99219C58.1191 6.78516 58.0508 6.57422 57.9609 6.35938C57.8711 6.14453 57.748 5.94727 57.5918 5.76758C57.4395 5.58398 57.2441 5.4375 57.0059 5.32812C56.7715 5.21484 56.4863 5.1582 56.1504 5.1582C55.8262 5.1582 55.5469 5.22461 55.3125 5.35742C55.0781 5.49023 54.8828 5.67578 54.7266 5.91406C54.5742 6.14844 54.4609 6.42383 54.3867 6.74023C54.3125 7.05664 54.2754 7.40039 54.2754 7.77148Z" fill="#F2F0F2"/>
<path d="M68.9297 8.33984H69.6504C69.5918 8.91406 69.4336 9.41016 69.1758 9.82812C68.918 10.2422 68.5664 10.5605 68.1211 10.7832C67.6758 11.0059 67.1387 11.1172 66.5098 11.1172C66.0254 11.1172 65.5859 11.0254 65.1914 10.8418C64.8008 10.6582 64.4648 10.3984 64.1836 10.0625C63.9023 9.72266 63.6855 9.31641 63.5332 8.84375C63.3809 8.37109 63.3047 7.8457 63.3047 7.26758V6.20117C63.3047 5.62305 63.3809 5.09961 63.5332 4.63086C63.6855 4.1582 63.9043 3.75195 64.1895 3.41211C64.4746 3.07227 64.8164 2.81055 65.2148 2.62695C65.6133 2.44336 66.0625 2.35156 66.5625 2.35156C67.168 2.35156 67.6914 2.46289 68.1328 2.68555C68.5742 2.9043 68.9219 3.2207 69.1758 3.63477C69.4336 4.04883 69.5918 4.54883 69.6504 5.13477H68.9297C68.875 4.67383 68.7539 4.2832 68.5664 3.96289C68.3789 3.64258 68.1191 3.39844 67.7871 3.23047C67.459 3.05859 67.0508 2.97266 66.5625 2.97266C66.1641 2.97266 65.8086 3.04883 65.4961 3.20117C65.1836 3.35352 64.918 3.57227 64.6992 3.85742C64.4805 4.13867 64.3125 4.47656 64.1953 4.87109C64.082 5.26562 64.0254 5.70508 64.0254 6.18945V7.26758C64.0254 7.73633 64.0801 8.16797 64.1895 8.5625C64.2988 8.95703 64.459 9.29883 64.6699 9.58789C64.8848 9.87695 65.1465 10.1016 65.4551 10.2617C65.7637 10.4219 66.1152 10.502 66.5098 10.502C67.0137 10.502 67.4336 10.4219 67.7695 10.2617C68.1094 10.0977 68.373 9.85547 68.5605 9.53516C68.748 9.21484 68.8711 8.81641 68.9297 8.33984ZM70.8574 7.92969V7.73633C70.8574 7.27539 70.9238 6.84961 71.0566 6.45898C71.1895 6.06836 71.3789 5.73047 71.625 5.44531C71.875 5.16016 72.1738 4.93945 72.5215 4.7832C72.8691 4.62305 73.2559 4.54297 73.6816 4.54297C74.1113 4.54297 74.5 4.62305 74.8477 4.7832C75.1953 4.93945 75.4941 5.16016 75.7441 5.44531C75.9941 5.73047 76.1855 6.06836 76.3184 6.45898C76.4512 6.84961 76.5176 7.27539 76.5176 7.73633V7.92969C76.5176 8.39062 76.4512 8.81641 76.3184 9.20703C76.1855 9.59375 75.9941 9.92969 75.7441 10.2148C75.498 10.5 75.2012 10.7227 74.8535 10.8828C74.5059 11.0391 74.1191 11.1172 73.6934 11.1172C73.2637 11.1172 72.875 11.0391 72.5273 10.8828C72.1797 10.7227 71.8809 10.5 71.6309 10.2148C71.3809 9.92969 71.1895 9.59375 71.0566 9.20703C70.9238 8.81641 70.8574 8.39062 70.8574 7.92969ZM71.5547 7.73633V7.92969C71.5547 8.27734 71.6016 8.60742 71.6953 8.91992C71.7891 9.22852 71.9258 9.50391 72.1055 9.74609C72.2852 9.98438 72.5078 10.1719 72.7734 10.3086C73.0391 10.4453 73.3457 10.5137 73.6934 10.5137C74.0371 10.5137 74.3398 10.4453 74.6016 10.3086C74.8672 10.1719 75.0898 9.98438 75.2695 9.74609C75.4492 9.50391 75.584 9.22852 75.6738 8.91992C75.7676 8.60742 75.8145 8.27734 75.8145 7.92969V7.73633C75.8145 7.39258 75.7676 7.06641 75.6738 6.75781C75.584 6.44922 75.4473 6.17383 75.2637 5.93164C75.084 5.68945 74.8613 5.49805 74.5957 5.35742C74.3301 5.2168 74.0254 5.14648 73.6816 5.14648C73.3379 5.14648 73.0332 5.2168 72.7676 5.35742C72.5059 5.49805 72.2832 5.68945 72.0996 5.93164C71.9199 6.17383 71.7832 6.44922 71.6895 6.75781C71.5996 7.06641 71.5547 7.39258 71.5547 7.73633ZM78.668 6.01367V11H77.9707V4.66016H78.6387L78.668 6.01367ZM78.5098 7.4375L78.1992 7.26172C78.2227 6.88672 78.2988 6.53516 78.4277 6.20703C78.5566 5.87891 78.7305 5.58984 78.9492 5.33984C79.1719 5.08984 79.4316 4.89453 79.7285 4.75391C80.0293 4.61328 80.3613 4.54297 80.7246 4.54297C81.041 4.54297 81.3242 4.58594 81.5742 4.67188C81.8242 4.75781 82.0371 4.89453 82.2129 5.08203C82.3887 5.26953 82.5215 5.50977 82.6113 5.80273C82.7051 6.0957 82.752 6.45312 82.752 6.875V11H82.0488V6.86914C82.0488 6.43164 81.9883 6.08984 81.8672 5.84375C81.7461 5.59375 81.5742 5.41602 81.3516 5.31055C81.1289 5.20508 80.8652 5.15234 80.5605 5.15234C80.2246 5.15234 79.9297 5.22656 79.6758 5.375C79.4258 5.51953 79.2148 5.70898 79.043 5.94336C78.875 6.17383 78.7461 6.42188 78.6562 6.6875C78.5664 6.94922 78.5176 7.19922 78.5098 7.4375ZM86.9648 4.66016V5.23438H83.7891V4.66016H86.9648ZM84.9551 3.03125H85.6523V9.45898C85.6523 9.75195 85.6914 9.97266 85.7695 10.1211C85.8477 10.2695 85.9492 10.3691 86.0742 10.4199C86.1992 10.4707 86.334 10.4961 86.4785 10.4961C86.584 10.4961 86.6855 10.4902 86.7832 10.4785C86.8809 10.4629 86.9688 10.4473 87.0469 10.4316L87.0762 11.0234C86.9902 11.0508 86.8789 11.0723 86.7422 11.0879C86.6055 11.1074 86.4688 11.1172 86.332 11.1172C86.0625 11.1172 85.8242 11.0684 85.6172 10.9707C85.4102 10.8691 85.248 10.6973 85.1309 10.4551C85.0137 10.209 84.9551 9.875 84.9551 9.45312V3.03125ZM92.291 9.86328V6.59375C92.291 6.29297 92.2285 6.0332 92.1035 5.81445C91.9785 5.5957 91.7949 5.42773 91.5527 5.31055C91.3105 5.19336 91.0117 5.13477 90.6562 5.13477C90.3281 5.13477 90.0352 5.19336 89.7773 5.31055C89.5234 5.42383 89.3223 5.57812 89.1738 5.77344C89.0293 5.96484 88.957 6.17773 88.957 6.41211L88.2539 6.40625C88.2539 6.16797 88.3125 5.9375 88.4297 5.71484C88.5469 5.49219 88.7129 5.29297 88.9277 5.11719C89.1426 4.94141 89.3984 4.80273 89.6953 4.70117C89.9961 4.5957 90.3262 4.54297 90.6855 4.54297C91.1387 4.54297 91.5371 4.61914 91.8809 4.77148C92.2285 4.92383 92.5 5.15234 92.6953 5.45703C92.8906 5.76172 92.9883 6.14453 92.9883 6.60547V9.66992C92.9883 9.88867 93.0039 10.1152 93.0352 10.3496C93.0703 10.584 93.1191 10.7773 93.1816 10.9297V11H92.4375C92.3906 10.8594 92.3535 10.6836 92.3262 10.4727C92.3027 10.2578 92.291 10.0547 92.291 9.86328ZM92.4551 7.30859L92.4668 7.84766H91.0898C90.7305 7.84766 90.4082 7.88086 90.123 7.94727C89.8418 8.00977 89.6035 8.10352 89.4082 8.22852C89.2129 8.34961 89.0625 8.49609 88.957 8.66797C88.8555 8.83984 88.8047 9.03516 88.8047 9.25391C88.8047 9.48047 88.8613 9.6875 88.9746 9.875C89.0918 10.0625 89.2559 10.2129 89.4668 10.3262C89.6816 10.4355 89.9355 10.4902 90.2285 10.4902C90.6191 10.4902 90.9629 10.418 91.2598 10.2734C91.5605 10.1289 91.8086 9.93945 92.0039 9.70508C92.1992 9.4707 92.3301 9.21484 92.3965 8.9375L92.7012 9.3418C92.6504 9.53711 92.5566 9.73828 92.4199 9.94531C92.2871 10.1484 92.1133 10.3398 91.8984 10.5195C91.6836 10.6953 91.4297 10.8398 91.1367 10.9531C90.8477 11.0625 90.5195 11.1172 90.1523 11.1172C89.7383 11.1172 89.377 11.0391 89.0684 10.8828C88.7637 10.7266 88.5254 10.5137 88.3535 10.2441C88.1855 9.9707 88.1016 9.66211 88.1016 9.31836C88.1016 9.00586 88.168 8.72656 88.3008 8.48047C88.4336 8.23047 88.625 8.01953 88.875 7.84766C89.1289 7.67188 89.4336 7.53906 89.7891 7.44922C90.1484 7.35547 90.5508 7.30859 90.9961 7.30859H92.4551ZM97.207 10.5137C97.5039 10.5137 97.7812 10.459 98.0391 10.3496C98.3008 10.2363 98.5156 10.0703 98.6836 9.85156C98.8555 9.62891 98.9531 9.35742 98.9766 9.03711H99.6445C99.625 9.43945 99.502 9.79883 99.2754 10.1152C99.0527 10.4277 98.7598 10.6738 98.3965 10.8535C98.0371 11.0293 97.6406 11.1172 97.207 11.1172C96.7656 11.1172 96.375 11.0371 96.0352 10.877C95.6992 10.7168 95.418 10.4941 95.1914 10.209C94.9648 9.91992 94.793 9.58398 94.6758 9.20117C94.5625 8.81445 94.5059 8.39844 94.5059 7.95312V7.70703C94.5059 7.26172 94.5625 6.84766 94.6758 6.46484C94.793 6.07812 94.9648 5.74219 95.1914 5.45703C95.418 5.16797 95.6992 4.94336 96.0352 4.7832C96.3711 4.62305 96.7598 4.54297 97.2012 4.54297C97.6543 4.54297 98.0605 4.63477 98.4199 4.81836C98.7832 5.00195 99.0723 5.26172 99.2871 5.59766C99.5059 5.93359 99.625 6.33203 99.6445 6.79297H98.9766C98.957 6.45312 98.8672 6.16016 98.707 5.91406C98.5469 5.66797 98.3359 5.47852 98.0742 5.3457C97.8125 5.21289 97.5215 5.14648 97.2012 5.14648C96.8418 5.14648 96.5352 5.2168 96.2812 5.35742C96.0273 5.49414 95.8203 5.68359 95.6602 5.92578C95.5039 6.16406 95.3887 6.4375 95.3145 6.74609C95.2402 7.05078 95.2031 7.37109 95.2031 7.70703V7.95312C95.2031 8.29297 95.2383 8.61719 95.3086 8.92578C95.3828 9.23047 95.498 9.50195 95.6543 9.74023C95.8145 9.97852 96.0215 10.168 96.2754 10.3086C96.5332 10.4453 96.8438 10.5137 97.207 10.5137ZM103.453 4.66016V5.23438H100.277V4.66016H103.453ZM101.443 3.03125H102.141V9.45898C102.141 9.75195 102.18 9.97266 102.258 10.1211C102.336 10.2695 102.438 10.3691 102.562 10.4199C102.688 10.4707 102.822 10.4961 102.967 10.4961C103.072 10.4961 103.174 10.4902 103.271 10.4785C103.369 10.4629 103.457 10.4473 103.535 10.4316L103.564 11.0234C103.479 11.0508 103.367 11.0723 103.23 11.0879C103.094 11.1074 102.957 11.1172 102.82 11.1172C102.551 11.1172 102.312 11.0684 102.105 10.9707C101.898 10.8691 101.736 10.6973 101.619 10.4551C101.502 10.209 101.443 9.875 101.443 9.45312V3.03125ZM108.721 9.38281C108.721 9.21094 108.678 9.04102 108.592 8.87305C108.506 8.70508 108.34 8.55078 108.094 8.41016C107.852 8.26953 107.494 8.15039 107.021 8.05273C106.67 7.97461 106.355 7.88672 106.078 7.78906C105.805 7.69141 105.574 7.57422 105.387 7.4375C105.199 7.30078 105.057 7.13672 104.959 6.94531C104.861 6.75391 104.812 6.52734 104.812 6.26562C104.812 6.03125 104.863 5.81055 104.965 5.60352C105.07 5.39258 105.219 5.20898 105.41 5.05273C105.605 4.89258 105.84 4.76758 106.113 4.67773C106.391 4.58789 106.701 4.54297 107.045 4.54297C107.533 4.54297 107.951 4.62695 108.299 4.79492C108.65 4.95898 108.918 5.18359 109.102 5.46875C109.289 5.75391 109.383 6.07617 109.383 6.43555H108.686C108.686 6.2168 108.621 6.00977 108.492 5.81445C108.367 5.61914 108.182 5.45898 107.936 5.33398C107.693 5.20898 107.396 5.14648 107.045 5.14648C106.682 5.14648 106.387 5.20117 106.16 5.31055C105.934 5.41992 105.768 5.55859 105.662 5.72656C105.561 5.89453 105.51 6.06836 105.51 6.24805C105.51 6.38867 105.531 6.51758 105.574 6.63477C105.621 6.74805 105.703 6.85352 105.82 6.95117C105.941 7.04883 106.113 7.14062 106.336 7.22656C106.559 7.3125 106.848 7.39648 107.203 7.47852C107.715 7.5918 108.133 7.73047 108.457 7.89453C108.785 8.05469 109.027 8.25391 109.184 8.49219C109.34 8.72656 109.418 9.01172 109.418 9.34766C109.418 9.60938 109.363 9.84961 109.254 10.0684C109.145 10.2832 108.986 10.4688 108.779 10.625C108.576 10.7812 108.33 10.9023 108.041 10.9883C107.756 11.0742 107.436 11.1172 107.08 11.1172C106.545 11.1172 106.092 11.0293 105.721 10.8535C105.354 10.6738 105.074 10.4395 104.883 10.1504C104.695 9.85742 104.602 9.54688 104.602 9.21875H105.299C105.322 9.54688 105.426 9.80664 105.609 9.99805C105.793 10.1855 106.018 10.3184 106.283 10.3965C106.553 10.4746 106.818 10.5137 107.08 10.5137C107.439 10.5137 107.74 10.4609 107.982 10.3555C108.225 10.25 108.408 10.1113 108.533 9.93945C108.658 9.76758 108.721 9.58203 108.721 9.38281Z" fill="#F20C60"/>
<path d="M114.598 5.97266V11H113.895V4.66016H114.568L114.598 5.97266ZM114.469 7.4375L114.129 7.26172C114.152 6.88672 114.223 6.53516 114.34 6.20703C114.461 5.87891 114.629 5.58984 114.844 5.33984C115.059 5.08984 115.316 4.89453 115.617 4.75391C115.918 4.61328 116.26 4.54297 116.643 4.54297C116.951 4.54297 117.23 4.58594 117.48 4.67188C117.734 4.75391 117.949 4.88477 118.125 5.06445C118.305 5.24023 118.443 5.4707 118.541 5.75586C118.639 6.04102 118.688 6.38281 118.688 6.78125V11H117.99V6.80469C117.99 6.38281 117.924 6.05273 117.791 5.81445C117.662 5.57617 117.48 5.40625 117.246 5.30469C117.016 5.20312 116.748 5.15234 116.443 5.15234C116.084 5.15234 115.779 5.22656 115.529 5.375C115.283 5.51953 115.082 5.70898 114.926 5.94336C114.773 6.17383 114.66 6.42188 114.586 6.6875C114.512 6.94922 114.473 7.19922 114.469 7.4375ZM118.682 6.88672L118.213 6.89844C118.232 6.58984 118.303 6.29492 118.424 6.01367C118.549 5.73242 118.719 5.48242 118.934 5.26367C119.148 5.04102 119.404 4.86523 119.701 4.73633C120.002 4.60742 120.34 4.54297 120.715 4.54297C121.043 4.54297 121.336 4.58789 121.594 4.67773C121.852 4.76367 122.068 4.90234 122.244 5.09375C122.424 5.28125 122.561 5.52148 122.654 5.81445C122.748 6.10742 122.795 6.45898 122.795 6.86914V11H122.092V6.86328C122.092 6.41406 122.025 6.06641 121.893 5.82031C121.764 5.57031 121.584 5.39648 121.354 5.29883C121.123 5.20117 120.854 5.15234 120.545 5.15234C120.24 5.15625 119.973 5.21289 119.742 5.32227C119.512 5.42773 119.318 5.56836 119.162 5.74414C119.01 5.91602 118.893 6.10156 118.811 6.30078C118.732 6.5 118.689 6.69531 118.682 6.88672ZM128.432 9.86328V6.59375C128.432 6.29297 128.369 6.0332 128.244 5.81445C128.119 5.5957 127.936 5.42773 127.693 5.31055C127.451 5.19336 127.152 5.13477 126.797 5.13477C126.469 5.13477 126.176 5.19336 125.918 5.31055C125.664 5.42383 125.463 5.57812 125.314 5.77344C125.17 5.96484 125.098 6.17773 125.098 6.41211L124.395 6.40625C124.395 6.16797 124.453 5.9375 124.57 5.71484C124.688 5.49219 124.854 5.29297 125.068 5.11719C125.283 4.94141 125.539 4.80273 125.836 4.70117C126.137 4.5957 126.467 4.54297 126.826 4.54297C127.279 4.54297 127.678 4.61914 128.021 4.77148C128.369 4.92383 128.641 5.15234 128.836 5.45703C129.031 5.76172 129.129 6.14453 129.129 6.60547V9.66992C129.129 9.88867 129.145 10.1152 129.176 10.3496C129.211 10.584 129.26 10.7773 129.322 10.9297V11H128.578C128.531 10.8594 128.494 10.6836 128.467 10.4727C128.443 10.2578 128.432 10.0547 128.432 9.86328ZM128.596 7.30859L128.607 7.84766H127.23C126.871 7.84766 126.549 7.88086 126.264 7.94727C125.982 8.00977 125.744 8.10352 125.549 8.22852C125.354 8.34961 125.203 8.49609 125.098 8.66797C124.996 8.83984 124.945 9.03516 124.945 9.25391C124.945 9.48047 125.002 9.6875 125.115 9.875C125.232 10.0625 125.396 10.2129 125.607 10.3262C125.822 10.4355 126.076 10.4902 126.369 10.4902C126.76 10.4902 127.104 10.418 127.4 10.2734C127.701 10.1289 127.949 9.93945 128.145 9.70508C128.34 9.4707 128.471 9.21484 128.537 8.9375L128.842 9.3418C128.791 9.53711 128.697 9.73828 128.561 9.94531C128.428 10.1484 128.254 10.3398 128.039 10.5195C127.824 10.6953 127.57 10.8398 127.277 10.9531C126.988 11.0625 126.66 11.1172 126.293 11.1172C125.879 11.1172 125.518 11.0391 125.209 10.8828C124.904 10.7266 124.666 10.5137 124.494 10.2441C124.326 9.9707 124.242 9.66211 124.242 9.31836C124.242 9.00586 124.309 8.72656 124.441 8.48047C124.574 8.23047 124.766 8.01953 125.016 7.84766C125.27 7.67188 125.574 7.53906 125.93 7.44922C126.289 7.35547 126.691 7.30859 127.137 7.30859H128.596ZM131.707 6.01367V11H131.01V4.66016H131.678L131.707 6.01367ZM131.549 7.4375L131.238 7.26172C131.262 6.88672 131.338 6.53516 131.467 6.20703C131.596 5.87891 131.77 5.58984 131.988 5.33984C132.211 5.08984 132.471 4.89453 132.768 4.75391C133.068 4.61328 133.4 4.54297 133.764 4.54297C134.08 4.54297 134.363 4.58594 134.613 4.67188C134.863 4.75781 135.076 4.89453 135.252 5.08203C135.428 5.26953 135.561 5.50977 135.65 5.80273C135.744 6.0957 135.791 6.45312 135.791 6.875V11H135.088V6.86914C135.088 6.43164 135.027 6.08984 134.906 5.84375C134.785 5.59375 134.613 5.41602 134.391 5.31055C134.168 5.20508 133.904 5.15234 133.6 5.15234C133.264 5.15234 132.969 5.22656 132.715 5.375C132.465 5.51953 132.254 5.70898 132.082 5.94336C131.914 6.17383 131.785 6.42188 131.695 6.6875C131.605 6.94922 131.557 7.19922 131.549 7.4375ZM141.463 9.86328V6.59375C141.463 6.29297 141.4 6.0332 141.275 5.81445C141.15 5.5957 140.967 5.42773 140.725 5.31055C140.482 5.19336 140.184 5.13477 139.828 5.13477C139.5 5.13477 139.207 5.19336 138.949 5.31055C138.695 5.42383 138.494 5.57812 138.346 5.77344C138.201 5.96484 138.129 6.17773 138.129 6.41211L137.426 6.40625C137.426 6.16797 137.484 5.9375 137.602 5.71484C137.719 5.49219 137.885 5.29297 138.1 5.11719C138.314 4.94141 138.57 4.80273 138.867 4.70117C139.168 4.5957 139.498 4.54297 139.857 4.54297C140.311 4.54297 140.709 4.61914 141.053 4.77148C141.4 4.92383 141.672 5.15234 141.867 5.45703C142.062 5.76172 142.16 6.14453 142.16 6.60547V9.66992C142.16 9.88867 142.176 10.1152 142.207 10.3496C142.242 10.584 142.291 10.7773 142.354 10.9297V11H141.609C141.562 10.8594 141.525 10.6836 141.498 10.4727C141.475 10.2578 141.463 10.0547 141.463 9.86328ZM141.627 7.30859L141.639 7.84766H140.262C139.902 7.84766 139.58 7.88086 139.295 7.94727C139.014 8.00977 138.775 8.10352 138.58 8.22852C138.385 8.34961 138.234 8.49609 138.129 8.66797C138.027 8.83984 137.977 9.03516 137.977 9.25391C137.977 9.48047 138.033 9.6875 138.146 9.875C138.264 10.0625 138.428 10.2129 138.639 10.3262C138.854 10.4355 139.107 10.4902 139.4 10.4902C139.791 10.4902 140.135 10.418 140.432 10.2734C140.732 10.1289 140.98 9.93945 141.176 9.70508C141.371 9.4707 141.502 9.21484 141.568 8.9375L141.873 9.3418C141.822 9.53711 141.729 9.73828 141.592 9.94531C141.459 10.1484 141.285 10.3398 141.07 10.5195C140.855 10.6953 140.602 10.8398 140.309 10.9531C140.02 11.0625 139.691 11.1172 139.324 11.1172C138.91 11.1172 138.549 11.0391 138.24 10.8828C137.936 10.7266 137.697 10.5137 137.525 10.2441C137.357 9.9707 137.273 9.66211 137.273 9.31836C137.273 9.00586 137.34 8.72656 137.473 8.48047C137.605 8.23047 137.797 8.01953 138.047 7.84766C138.301 7.67188 138.605 7.53906 138.961 7.44922C139.32 7.35547 139.723 7.30859 140.168 7.30859H141.627ZM148.213 4.66016H148.863V10.8887C148.863 11.4395 148.758 11.9121 148.547 12.3066C148.34 12.7012 148.045 13.0039 147.662 13.2148C147.283 13.4258 146.836 13.5312 146.32 13.5312C146.059 13.5312 145.789 13.4902 145.512 13.4082C145.238 13.3301 144.979 13.209 144.732 13.0449C144.49 12.8848 144.283 12.6855 144.111 12.4473L144.504 12.0195C144.762 12.332 145.037 12.5605 145.33 12.7051C145.623 12.8535 145.939 12.9277 146.279 12.9277C146.682 12.9277 147.021 12.8477 147.299 12.6875C147.58 12.5273 147.793 12.2969 147.938 11.9961C148.086 11.6953 148.16 11.334 148.16 10.9121V6.05469L148.213 4.66016ZM143.76 7.89453V7.77148C143.76 7.2793 143.814 6.83594 143.924 6.44141C144.037 6.04297 144.199 5.70312 144.41 5.42188C144.621 5.13672 144.877 4.91992 145.178 4.77148C145.482 4.61914 145.826 4.54297 146.209 4.54297C146.576 4.54297 146.902 4.60352 147.188 4.72461C147.473 4.8457 147.719 5.01953 147.926 5.24609C148.133 5.47266 148.299 5.74219 148.424 6.05469C148.553 6.36719 148.646 6.71484 148.705 7.09766V8.66211C148.658 9.02148 148.572 9.35156 148.447 9.65234C148.322 9.94922 148.156 10.209 147.949 10.4316C147.742 10.6504 147.492 10.8203 147.199 10.9414C146.91 11.0586 146.576 11.1172 146.197 11.1172C145.818 11.1172 145.479 11.0391 145.178 10.8828C144.877 10.7266 144.621 10.5059 144.41 10.2207C144.199 9.93164 144.037 9.58984 143.924 9.19531C143.814 8.80078 143.76 8.36719 143.76 7.89453ZM144.463 7.77148V7.89453C144.463 8.26562 144.5 8.60938 144.574 8.92578C144.648 9.24219 144.762 9.51758 144.914 9.75195C145.066 9.98633 145.26 10.1699 145.494 10.3027C145.729 10.4355 146.004 10.502 146.32 10.502C146.723 10.502 147.061 10.4258 147.334 10.2734C147.607 10.1172 147.824 9.91211 147.984 9.6582C148.145 9.40039 148.262 9.11914 148.336 8.81445V6.99219C148.293 6.78516 148.227 6.57422 148.137 6.35938C148.051 6.14453 147.93 5.94727 147.773 5.76758C147.621 5.58398 147.426 5.4375 147.188 5.32812C146.953 5.21484 146.668 5.1582 146.332 5.1582C146.012 5.1582 145.732 5.22461 145.494 5.35742C145.26 5.49023 145.066 5.67578 144.914 5.91406C144.762 6.14844 144.648 6.42383 144.574 6.74023C144.5 7.05664 144.463 7.40039 144.463 7.77148ZM153.146 11.1172C152.732 11.1172 152.352 11.041 152.004 10.8887C151.66 10.7363 151.359 10.5215 151.102 10.2441C150.848 9.9668 150.65 9.63867 150.51 9.25977C150.373 8.87695 150.305 8.45898 150.305 8.00586V7.75391C150.305 7.26562 150.377 6.82422 150.521 6.42969C150.666 6.03516 150.865 5.69727 151.119 5.41602C151.373 5.13477 151.662 4.91992 151.986 4.77148C152.314 4.61914 152.658 4.54297 153.018 4.54297C153.42 4.54297 153.777 4.61523 154.09 4.75977C154.402 4.90039 154.664 5.10156 154.875 5.36328C155.09 5.62109 155.252 5.92773 155.361 6.2832C155.471 6.63477 155.525 7.02344 155.525 7.44922V7.87695H150.727V7.2793H154.828V7.19727C154.82 6.8418 154.748 6.50977 154.611 6.20117C154.479 5.88867 154.279 5.63477 154.014 5.43945C153.748 5.24414 153.416 5.14648 153.018 5.14648C152.721 5.14648 152.447 5.20898 152.197 5.33398C151.951 5.45898 151.738 5.63867 151.559 5.87305C151.383 6.10352 151.246 6.37891 151.148 6.69922C151.055 7.01562 151.008 7.36719 151.008 7.75391V8.00586C151.008 8.35742 151.059 8.68555 151.16 8.99023C151.266 9.29102 151.414 9.55664 151.605 9.78711C151.801 10.0176 152.031 10.1973 152.297 10.3262C152.562 10.4551 152.855 10.5195 153.176 10.5195C153.551 10.5195 153.883 10.4512 154.172 10.3145C154.461 10.1738 154.721 9.95312 154.951 9.65234L155.391 9.99219C155.254 10.1953 155.082 10.3828 154.875 10.5547C154.672 10.7266 154.428 10.8633 154.143 10.9648C153.857 11.0664 153.525 11.1172 153.146 11.1172ZM157.605 5.70898V11H156.908V4.66016H157.588L157.605 5.70898ZM159.85 4.61328L159.832 5.25781C159.754 5.24609 159.678 5.23633 159.604 5.22852C159.529 5.2207 159.449 5.2168 159.363 5.2168C159.059 5.2168 158.791 5.27344 158.561 5.38672C158.334 5.49609 158.143 5.65039 157.986 5.84961C157.83 6.04492 157.711 6.27539 157.629 6.54102C157.547 6.80273 157.5 7.08398 157.488 7.38477L157.23 7.48438C157.23 7.07031 157.273 6.68555 157.359 6.33008C157.445 5.97461 157.576 5.66406 157.752 5.39844C157.932 5.12891 158.156 4.91992 158.426 4.77148C158.699 4.61914 159.02 4.54297 159.387 4.54297C159.477 4.54297 159.564 4.55078 159.65 4.56641C159.74 4.57812 159.807 4.59375 159.85 4.61328Z" fill="#F2F0F2"/>
</svg>
