<svg width="176" height="46" viewBox="0 0 176 46" fill="none" xmlns="http://www.w3.org/2000/svg">
<path d="M8.16797 15.918H3.82031V13.1758H8.16797C8.83984 13.1758 9.38672 13.0664 9.80859 12.8477C10.2305 12.6211 10.5391 12.3086 10.7344 11.9102C10.9297 11.5117 11.0273 11.0625 11.0273 10.5625C11.0273 10.0547 10.9297 9.58203 10.7344 9.14453C10.5391 8.70703 10.2305 8.35547 9.80859 8.08984C9.38672 7.82422 8.83984 7.69141 8.16797 7.69141H5.03906V22H1.52344V4.9375H8.16797C9.50391 4.9375 10.6484 5.17969 11.6016 5.66406C12.5625 6.14063 13.2969 6.80078 13.8047 7.64453C14.3125 8.48828 14.5664 9.45312 14.5664 10.5391C14.5664 11.6406 14.3125 12.5938 13.8047 13.3984C13.2969 14.2031 12.5625 14.8242 11.6016 15.2617C10.6484 15.6992 9.50391 15.918 8.16797 15.918Z" fill="#F20C78"/>
<path d="M19.4648 12.8711L22.7461 10.75C23.2305 10.4297 23.5547 10.1211 23.7188 9.82422C23.8828 9.52734 23.9648 9.19531 23.9648 8.82812C23.9648 8.46094 23.8281 8.12109 23.5547 7.80859C23.2812 7.48828 22.8984 7.32812 22.4062 7.32812C22.0547 7.32812 21.7578 7.41016 21.5156 7.57422C21.2734 7.73047 21.0898 7.94141 20.9648 8.20703C20.8477 8.47266 20.7891 8.76953 20.7891 9.09766C20.7891 9.44922 20.8828 9.80859 21.0703 10.1758C21.2578 10.5352 21.5117 10.918 21.832 11.3242C22.1523 11.7227 22.5078 12.1562 22.8984 12.625L30.9492 22H27.1172L20.5547 14.4062C20 13.7188 19.5156 13.0898 19.1016 12.5195C18.6875 11.9414 18.3633 11.3789 18.1289 10.832C17.8945 10.2852 17.7773 9.72266 17.7773 9.14453C17.7773 8.25391 17.9688 7.47656 18.3516 6.8125C18.7344 6.14063 19.2734 5.62109 19.9688 5.25391C20.6641 4.87891 21.4805 4.69141 22.418 4.69141C23.3008 4.69141 24.0664 4.875 24.7148 5.24219C25.3633 5.60156 25.8633 6.07812 26.2148 6.67188C26.5742 7.26563 26.7539 7.91797 26.7539 8.62891C26.7539 9.16016 26.6562 9.65234 26.4609 10.1055C26.2656 10.5508 25.9961 10.9648 25.6523 11.3477C25.3086 11.7227 24.9141 12.0703 24.4688 12.3906L20.7305 15.0508C20.4414 15.3164 20.2227 15.5781 20.0742 15.8359C19.9258 16.0938 19.8242 16.3398 19.7695 16.5742C19.7148 16.8008 19.6875 17.0195 19.6875 17.2305C19.6875 17.6836 19.7852 18.0898 19.9805 18.4492C20.1758 18.8086 20.4492 19.0898 20.8008 19.293C21.1523 19.4961 21.5625 19.5977 22.0312 19.5977C22.6719 19.5977 23.293 19.457 23.8945 19.1758C24.4961 18.8945 25.0352 18.4922 25.5117 17.9688C25.9883 17.4375 26.3672 16.8086 26.6484 16.082C26.9297 15.3555 27.0703 14.5547 27.0703 13.6797H29.9297C29.9297 14.5547 29.8438 15.3867 29.6719 16.1758C29.5 16.957 29.2227 17.6836 28.8398 18.3555C28.457 19.0195 27.9492 19.6094 27.3164 20.125C27.2695 20.1641 27.2031 20.2227 27.1172 20.3008C27.0391 20.3711 26.9727 20.4258 26.918 20.4648C26.168 21.0664 25.3867 21.5156 24.5742 21.8125C23.7617 22.1016 22.8555 22.2461 21.8555 22.2461C20.7148 22.2461 19.7266 22.0391 18.8906 21.625C18.0625 21.2109 17.4219 20.6406 16.9688 19.9141C16.5234 19.1875 16.3008 18.3555 16.3008 17.418C16.3008 16.7305 16.4336 16.1328 16.6992 15.625C16.9727 15.1094 17.3477 14.6328 17.8242 14.1953C18.3008 13.7578 18.8477 13.3164 19.4648 12.8711ZM56.0742 4.9375H59.0508L63.4336 17.4648L67.8164 4.9375H70.793L64.6289 22H62.2383L56.0742 4.9375ZM54.4688 4.9375H57.4336L57.9727 17.1484V22H54.4688V4.9375ZM69.4336 4.9375H72.4102V22H68.8945V17.1484L69.4336 4.9375ZM82.6406 7.85547L78 22H74.2617L80.6016 4.9375H82.9805L82.6406 7.85547ZM86.4961 22L81.8438 7.85547L81.4688 4.9375H83.8711L90.2461 22H86.4961ZM86.2852 15.6484V18.4023H77.2734V15.6484H86.2852ZM105.715 4.9375V22H102.199L95.3438 10.5625V22H91.8281V4.9375H95.3438L102.211 16.3867V4.9375H105.715ZM115.922 7.85547L111.281 22H107.543L113.883 4.9375H116.262L115.922 7.85547ZM119.777 22L115.125 7.85547L114.75 4.9375H117.152L123.527 22H119.777ZM119.566 15.6484V18.4023H110.555V15.6484H119.566ZM138.422 13.082V19.8438C138.156 20.1641 137.746 20.5117 137.191 20.8867C136.637 21.2539 135.922 21.5703 135.047 21.8359C134.172 22.1016 133.113 22.2344 131.871 22.2344C130.77 22.2344 129.766 22.0547 128.859 21.6953C127.953 21.3281 127.172 20.793 126.516 20.0898C125.867 19.3867 125.367 18.5273 125.016 17.5117C124.664 16.4883 124.488 15.3203 124.488 14.0078V12.9414C124.488 11.6289 124.656 10.4609 124.992 9.4375C125.336 8.41406 125.824 7.55078 126.457 6.84766C127.09 6.14453 127.844 5.60937 128.719 5.24219C129.594 4.875 130.566 4.69141 131.637 4.69141C133.121 4.69141 134.34 4.93359 135.293 5.41797C136.246 5.89453 136.973 6.55859 137.473 7.41016C137.98 8.25391 138.293 9.22266 138.41 10.3164H135C134.914 9.73828 134.75 9.23438 134.508 8.80469C134.266 8.375 133.918 8.03906 133.465 7.79688C133.02 7.55469 132.441 7.43359 131.73 7.43359C131.145 7.43359 130.621 7.55469 130.16 7.79688C129.707 8.03125 129.324 8.37891 129.012 8.83984C128.699 9.30078 128.461 9.87109 128.297 10.5508C128.133 11.2305 128.051 12.0195 128.051 12.918V14.0078C128.051 14.8984 128.137 15.6875 128.309 16.375C128.48 17.0547 128.734 17.6289 129.07 18.0977C129.414 18.5586 129.836 18.9062 130.336 19.1406C130.836 19.375 131.418 19.4922 132.082 19.4922C132.637 19.4922 133.098 19.4453 133.465 19.3516C133.84 19.2578 134.141 19.1445 134.367 19.0117C134.602 18.8711 134.781 18.7383 134.906 18.6133V15.5898H131.695V13.082H138.422ZM152.707 19.2578V22H143.625V19.2578H152.707ZM144.773 4.9375V22H141.258V4.9375H144.773ZM151.523 11.8867V14.5586H143.625V11.8867H151.523ZM152.695 4.9375V7.69141H143.625V4.9375H152.695ZM154.758 4.9375H161.121C162.426 4.9375 163.547 5.13281 164.484 5.52344C165.43 5.91406 166.156 6.49219 166.664 7.25781C167.172 8.02344 167.426 8.96484 167.426 10.082C167.426 10.9961 167.27 11.7812 166.957 12.4375C166.652 13.0859 166.219 13.6289 165.656 14.0664C165.102 14.4961 164.449 14.8398 163.699 15.0977L162.586 15.6836H157.055L157.031 12.9414H161.145C161.762 12.9414 162.273 12.832 162.68 12.6133C163.086 12.3945 163.391 12.0898 163.594 11.6992C163.805 11.3086 163.91 10.8555 163.91 10.3398C163.91 9.79297 163.809 9.32031 163.605 8.92188C163.402 8.52344 163.094 8.21875 162.68 8.00781C162.266 7.79688 161.746 7.69141 161.121 7.69141H158.273V22H154.758V4.9375ZM164.297 22L160.406 14.3945L164.121 14.3711L168.059 21.8359V22H164.297Z" fill="#F2F0F2"/>
<path d="M42.6797 16.3398H46.1836C46.1133 17.4883 45.7969 18.5078 45.2344 19.3984C44.6797 20.2891 43.9023 20.9844 42.9023 21.4844C41.9102 21.9844 40.7148 22.2344 39.3164 22.2344C38.2227 22.2344 37.2422 22.0469 36.375 21.6719C35.5078 21.2891 34.7656 20.7422 34.1484 20.0312C33.5391 19.3203 33.0742 18.4609 32.7539 17.4531C32.4336 16.4453 32.2734 15.3164 32.2734 14.0664V12.8828C32.2734 11.6328 32.4375 10.5039 32.7656 9.49609C33.1016 8.48047 33.5781 7.61719 34.1953 6.90625C34.8203 6.19531 35.5664 5.64844 36.4336 5.26562C37.3008 4.88281 38.2695 4.69141 39.3398 4.69141C40.7617 4.69141 41.9609 4.94922 42.9375 5.46484C43.9219 5.98047 44.6836 6.69141 45.2227 7.59766C45.7695 8.50391 46.0977 9.53516 46.207 10.6914H42.6914C42.6523 10.0039 42.5156 9.42188 42.2812 8.94531C42.0469 8.46094 41.6914 8.09766 41.2148 7.85547C40.7461 7.60547 40.1211 7.48047 39.3398 7.48047C38.7539 7.48047 38.2422 7.58984 37.8047 7.80859C37.3672 8.02734 37 8.35938 36.7031 8.80469C36.4062 9.25 36.1836 9.8125 36.0352 10.4922C35.8945 11.1641 35.8242 11.9531 35.8242 12.8594V14.0664C35.8242 14.9492 35.8906 15.7266 36.0234 16.3984C36.1562 17.0625 36.3594 17.625 36.6328 18.0859C36.9141 18.5391 37.2734 18.8828 37.7109 19.1172C38.1562 19.3438 38.6914 19.457 39.3164 19.457C40.0508 19.457 40.6562 19.3398 41.1328 19.1055C41.6094 18.8711 41.9727 18.5234 42.2227 18.0625C42.4805 17.6016 42.6328 17.0273 42.6797 16.3398Z" fill="#F20C60"/>
<path d="M3.98438 39.5254H1.55273V38.9102H3.98438C4.49219 38.9102 4.9043 38.8281 5.2207 38.6641C5.54102 38.4961 5.77344 38.2695 5.91797 37.9844C6.06641 37.6992 6.14062 37.3789 6.14062 37.0234C6.14062 36.6758 6.06641 36.3555 5.91797 36.0625C5.77344 35.7695 5.54102 35.5352 5.2207 35.3594C4.9043 35.1797 4.49219 35.0898 3.98438 35.0898H1.80469V43H1.08398V34.4688H3.98438C4.60938 34.4688 5.13477 34.5762 5.56055 34.791C5.99023 35.0059 6.31445 35.3047 6.5332 35.6875C6.75195 36.0703 6.86133 36.5117 6.86133 37.0117C6.86133 37.5352 6.75195 37.9863 6.5332 38.3652C6.31445 38.7402 5.99219 39.0273 5.56641 39.2266C5.14062 39.4258 4.61328 39.5254 3.98438 39.5254ZM10.6816 43.1172C10.2676 43.1172 9.88672 43.041 9.53906 42.8887C9.19531 42.7363 8.89453 42.5215 8.63672 42.2441C8.38281 41.9668 8.18555 41.6387 8.04492 41.2598C7.9082 40.877 7.83984 40.459 7.83984 40.0059V39.7539C7.83984 39.2656 7.91211 38.8242 8.05664 38.4297C8.20117 38.0352 8.40039 37.6973 8.6543 37.416C8.9082 37.1348 9.19727 36.9199 9.52148 36.7715C9.84961 36.6191 10.1934 36.543 10.5527 36.543C10.9551 36.543 11.3125 36.6152 11.625 36.7598C11.9375 36.9004 12.1992 37.1016 12.4102 37.3633C12.625 37.6211 12.7871 37.9277 12.8965 38.2832C13.0059 38.6348 13.0605 39.0234 13.0605 39.4492V39.877H8.26172V39.2793H12.3633V39.1973C12.3555 38.8418 12.2832 38.5098 12.1465 38.2012C12.0137 37.8887 11.8145 37.6348 11.5488 37.4395C11.2832 37.2441 10.9512 37.1465 10.5527 37.1465C10.2559 37.1465 9.98242 37.209 9.73242 37.334C9.48633 37.459 9.27344 37.6387 9.09375 37.873C8.91797 38.1035 8.78125 38.3789 8.68359 38.6992C8.58984 39.0156 8.54297 39.3672 8.54297 39.7539V40.0059C8.54297 40.3574 8.59375 40.6855 8.69531 40.9902C8.80078 41.291 8.94922 41.5566 9.14062 41.7871C9.33594 42.0176 9.56641 42.1973 9.83203 42.3262C10.0977 42.4551 10.3906 42.5195 10.7109 42.5195C11.0859 42.5195 11.418 42.4512 11.707 42.3145C11.9961 42.1738 12.2559 41.9531 12.4863 41.6523L12.9258 41.9922C12.7891 42.1953 12.6172 42.3828 12.4102 42.5547C12.207 42.7266 11.9629 42.8633 11.6777 42.9648C11.3926 43.0664 11.0605 43.1172 10.6816 43.1172ZM15.1406 37.709V43H14.4434V36.6602H15.123L15.1406 37.709ZM17.3848 36.6133L17.3672 37.2578C17.2891 37.2461 17.2129 37.2363 17.1387 37.2285C17.0645 37.2207 16.9844 37.2168 16.8984 37.2168C16.5938 37.2168 16.3262 37.2734 16.0957 37.3867C15.8691 37.4961 15.6777 37.6504 15.5215 37.8496C15.3652 38.0449 15.2461 38.2754 15.1641 38.541C15.082 38.8027 15.0352 39.084 15.0234 39.3848L14.7656 39.4844C14.7656 39.0703 14.8086 38.6855 14.8945 38.3301C14.9805 37.9746 15.1113 37.6641 15.2871 37.3984C15.4668 37.1289 15.6914 36.9199 15.9609 36.7715C16.2344 36.6191 16.5547 36.543 16.9219 36.543C17.0117 36.543 17.0996 36.5508 17.1855 36.5664C17.2754 36.5781 17.3418 36.5938 17.3848 36.6133ZM22.2832 41.3828C22.2832 41.2109 22.2402 41.041 22.1543 40.873C22.0684 40.7051 21.9023 40.5508 21.6562 40.4102C21.4141 40.2695 21.0566 40.1504 20.584 40.0527C20.2324 39.9746 19.918 39.8867 19.6406 39.7891C19.3672 39.6914 19.1367 39.5742 18.9492 39.4375C18.7617 39.3008 18.6191 39.1367 18.5215 38.9453C18.4238 38.7539 18.375 38.5273 18.375 38.2656C18.375 38.0312 18.4258 37.8105 18.5273 37.6035C18.6328 37.3926 18.7812 37.209 18.9727 37.0527C19.168 36.8926 19.4023 36.7676 19.6758 36.6777C19.9531 36.5879 20.2637 36.543 20.6074 36.543C21.0957 36.543 21.5137 36.627 21.8613 36.7949C22.2129 36.959 22.4805 37.1836 22.6641 37.4688C22.8516 37.7539 22.9453 38.0762 22.9453 38.4355H22.248C22.248 38.2168 22.1836 38.0098 22.0547 37.8145C21.9297 37.6191 21.7441 37.459 21.498 37.334C21.2559 37.209 20.959 37.1465 20.6074 37.1465C20.2441 37.1465 19.9492 37.2012 19.7227 37.3105C19.4961 37.4199 19.3301 37.5586 19.2246 37.7266C19.123 37.8945 19.0723 38.0684 19.0723 38.248C19.0723 38.3887 19.0938 38.5176 19.1367 38.6348C19.1836 38.748 19.2656 38.8535 19.3828 38.9512C19.5039 39.0488 19.6758 39.1406 19.8984 39.2266C20.1211 39.3125 20.4102 39.3965 20.7656 39.4785C21.2773 39.5918 21.6953 39.7305 22.0195 39.8945C22.3477 40.0547 22.5898 40.2539 22.7461 40.4922C22.9023 40.7266 22.9805 41.0117 22.9805 41.3477C22.9805 41.6094 22.9258 41.8496 22.8164 42.0684C22.707 42.2832 22.5488 42.4688 22.3418 42.625C22.1387 42.7812 21.8926 42.9023 21.6035 42.9883C21.3184 43.0742 20.998 43.1172 20.6426 43.1172C20.1074 43.1172 19.6543 43.0293 19.2832 42.8535C18.916 42.6738 18.6367 42.4395 18.4453 42.1504C18.2578 41.8574 18.1641 41.5469 18.1641 41.2188H18.8613C18.8848 41.5469 18.9883 41.8066 19.1719 41.998C19.3555 42.1855 19.5801 42.3184 19.8457 42.3965C20.1152 42.4746 20.3809 42.5137 20.6426 42.5137C21.002 42.5137 21.3027 42.4609 21.5449 42.3555C21.7871 42.25 21.9707 42.1113 22.0957 41.9395C22.2207 41.7676 22.2832 41.582 22.2832 41.3828ZM24.1816 39.9297V39.7363C24.1816 39.2754 24.248 38.8496 24.3809 38.459C24.5137 38.0684 24.7031 37.7305 24.9492 37.4453C25.1992 37.1602 25.498 36.9395 25.8457 36.7832C26.1934 36.623 26.5801 36.543 27.0059 36.543C27.4355 36.543 27.8242 36.623 28.1719 36.7832C28.5195 36.9395 28.8184 37.1602 29.0684 37.4453C29.3184 37.7305 29.5098 38.0684 29.6426 38.459C29.7754 38.8496 29.8418 39.2754 29.8418 39.7363V39.9297C29.8418 40.3906 29.7754 40.8164 29.6426 41.207C29.5098 41.5938 29.3184 41.9297 29.0684 42.2148C28.8223 42.5 28.5254 42.7227 28.1777 42.8828C27.8301 43.0391 27.4434 43.1172 27.0176 43.1172C26.5879 43.1172 26.1992 43.0391 25.8516 42.8828C25.5039 42.7227 25.2051 42.5 24.9551 42.2148C24.7051 41.9297 24.5137 41.5938 24.3809 41.207C24.248 40.8164 24.1816 40.3906 24.1816 39.9297ZM24.8789 39.7363V39.9297C24.8789 40.2773 24.9258 40.6074 25.0195 40.9199C25.1133 41.2285 25.25 41.5039 25.4297 41.7461C25.6094 41.9844 25.832 42.1719 26.0977 42.3086C26.3633 42.4453 26.6699 42.5137 27.0176 42.5137C27.3613 42.5137 27.6641 42.4453 27.9258 42.3086C28.1914 42.1719 28.4141 41.9844 28.5938 41.7461C28.7734 41.5039 28.9082 41.2285 28.998 40.9199C29.0918 40.6074 29.1387 40.2773 29.1387 39.9297V39.7363C29.1387 39.3926 29.0918 39.0664 28.998 38.7578C28.9082 38.4492 28.7715 38.1738 28.5879 37.9316C28.4082 37.6895 28.1855 37.498 27.9199 37.3574C27.6543 37.2168 27.3496 37.1465 27.0059 37.1465C26.6621 37.1465 26.3574 37.2168 26.0918 37.3574C25.8301 37.498 25.6074 37.6895 25.4238 37.9316C25.2441 38.1738 25.1074 38.4492 25.0137 38.7578C24.9238 39.0664 24.8789 39.3926 24.8789 39.7363ZM31.9922 38.0137V43H31.2949V36.6602H31.9629L31.9922 38.0137ZM31.834 39.4375L31.5234 39.2617C31.5469 38.8867 31.623 38.5352 31.752 38.207C31.8809 37.8789 32.0547 37.5898 32.2734 37.3398C32.4961 37.0898 32.7559 36.8945 33.0527 36.7539C33.3535 36.6133 33.6855 36.543 34.0488 36.543C34.3652 36.543 34.6484 36.5859 34.8984 36.6719C35.1484 36.7578 35.3613 36.8945 35.5371 37.082C35.7129 37.2695 35.8457 37.5098 35.9355 37.8027C36.0293 38.0957 36.0762 38.4531 36.0762 38.875V43H35.373V38.8691C35.373 38.4316 35.3125 38.0898 35.1914 37.8438C35.0703 37.5938 34.8984 37.416 34.6758 37.3105C34.4531 37.2051 34.1895 37.1523 33.8848 37.1523C33.5488 37.1523 33.2539 37.2266 33 37.375C32.75 37.5195 32.5391 37.709 32.3672 37.9434C32.1992 38.1738 32.0703 38.4219 31.9805 38.6875C31.8906 38.9492 31.8418 39.1992 31.834 39.4375Z" fill="#F20C78"/>
<path d="M44.6777 41.8633V38.5938C44.6777 38.293 44.6152 38.0332 44.4902 37.8145C44.3652 37.5957 44.1816 37.4277 43.9395 37.3105C43.6973 37.1934 43.3984 37.1348 43.043 37.1348C42.7148 37.1348 42.4219 37.1934 42.1641 37.3105C41.9102 37.4238 41.709 37.5781 41.5605 37.7734C41.416 37.9648 41.3438 38.1777 41.3438 38.4121L40.6406 38.4062C40.6406 38.168 40.6992 37.9375 40.8164 37.7148C40.9336 37.4922 41.0996 37.293 41.3145 37.1172C41.5293 36.9414 41.7852 36.8027 42.082 36.7012C42.3828 36.5957 42.7129 36.543 43.0723 36.543C43.5254 36.543 43.9238 36.6191 44.2676 36.7715C44.6152 36.9238 44.8867 37.1523 45.082 37.457C45.2773 37.7617 45.375 38.1445 45.375 38.6055V41.6699C45.375 41.8887 45.3906 42.1152 45.4219 42.3496C45.457 42.584 45.5059 42.7773 45.5684 42.9297V43H44.8242C44.7773 42.8594 44.7402 42.6836 44.7129 42.4727C44.6895 42.2578 44.6777 42.0547 44.6777 41.8633ZM44.8418 39.3086L44.8535 39.8477H43.4766C43.1172 39.8477 42.7949 39.8809 42.5098 39.9473C42.2285 40.0098 41.9902 40.1035 41.7949 40.2285C41.5996 40.3496 41.4492 40.4961 41.3438 40.668C41.2422 40.8398 41.1914 41.0352 41.1914 41.2539C41.1914 41.4805 41.248 41.6875 41.3613 41.875C41.4785 42.0625 41.6426 42.2129 41.8535 42.3262C42.0684 42.4355 42.3223 42.4902 42.6152 42.4902C43.0059 42.4902 43.3496 42.418 43.6465 42.2734C43.9473 42.1289 44.1953 41.9395 44.3906 41.7051C44.5859 41.4707 44.7168 41.2148 44.7832 40.9375L45.0879 41.3418C45.0371 41.5371 44.9434 41.7383 44.8066 41.9453C44.6738 42.1484 44.5 42.3398 44.2852 42.5195C44.0703 42.6953 43.8164 42.8398 43.5234 42.9531C43.2344 43.0625 42.9062 43.1172 42.5391 43.1172C42.125 43.1172 41.7637 43.0391 41.4551 42.8828C41.1504 42.7266 40.9121 42.5137 40.7402 42.2441C40.5723 41.9707 40.4883 41.6621 40.4883 41.3184C40.4883 41.0059 40.5547 40.7266 40.6875 40.4805C40.8203 40.2305 41.0117 40.0195 41.2617 39.8477C41.5156 39.6719 41.8203 39.5391 42.1758 39.4492C42.5352 39.3555 42.9375 39.3086 43.3828 39.3086H44.8418ZM47.9531 38.0137V43H47.2559V36.6602H47.9238L47.9531 38.0137ZM47.7949 39.4375L47.4844 39.2617C47.5078 38.8867 47.584 38.5352 47.7129 38.207C47.8418 37.8789 48.0156 37.5898 48.2344 37.3398C48.457 37.0898 48.7168 36.8945 49.0137 36.7539C49.3145 36.6133 49.6465 36.543 50.0098 36.543C50.3262 36.543 50.6094 36.5859 50.8594 36.6719C51.1094 36.7578 51.3223 36.8945 51.498 37.082C51.6738 37.2695 51.8066 37.5098 51.8965 37.8027C51.9902 38.0957 52.0371 38.4531 52.0371 38.875V43H51.334V38.8691C51.334 38.4316 51.2734 38.0898 51.1523 37.8438C51.0312 37.5938 50.8594 37.416 50.6367 37.3105C50.4141 37.2051 50.1504 37.1523 49.8457 37.1523C49.5098 37.1523 49.2148 37.2266 48.9609 37.375C48.7109 37.5195 48.5 37.709 48.3281 37.9434C48.1602 38.1738 48.0312 38.4219 47.9414 38.6875C47.8516 38.9492 47.8027 39.1992 47.7949 39.4375ZM57.9727 41.7695V34H58.6758V43H58.0195L57.9727 41.7695ZM53.5723 39.8945V39.7715C53.5723 39.2793 53.6289 38.8359 53.7422 38.4414C53.8555 38.043 54.0176 37.7031 54.2285 37.4219C54.4434 37.1367 54.7012 36.9199 55.002 36.7715C55.3027 36.6191 55.6426 36.543 56.0215 36.543C56.3926 36.543 56.7207 36.6035 57.0059 36.7246C57.291 36.8457 57.5352 37.0195 57.7383 37.2461C57.9453 37.4727 58.1113 37.7422 58.2363 38.0547C58.3652 38.3672 58.459 38.7148 58.5176 39.0977V40.6621C58.4707 41.0215 58.3848 41.3516 58.2598 41.6523C58.1348 41.9492 57.9688 42.209 57.7617 42.4316C57.5547 42.6504 57.3047 42.8203 57.0117 42.9414C56.7227 43.0586 56.3887 43.1172 56.0098 43.1172C55.6348 43.1172 55.2969 43.0391 54.9961 42.8828C54.6953 42.7266 54.4395 42.5059 54.2285 42.2207C54.0176 41.9316 53.8555 41.5898 53.7422 41.1953C53.6289 40.8008 53.5723 40.3672 53.5723 39.8945ZM54.2754 39.7715V39.8945C54.2754 40.2656 54.3125 40.6094 54.3867 40.9258C54.4609 41.2422 54.5742 41.5176 54.7266 41.752C54.8789 41.9863 55.0723 42.1699 55.3066 42.3027C55.541 42.4355 55.8184 42.502 56.1387 42.502C56.541 42.502 56.8789 42.4258 57.1523 42.2734C57.4258 42.1172 57.6445 41.9121 57.8086 41.6582C57.9727 41.4004 58.0918 41.1191 58.166 40.8145V38.9922C58.1191 38.7852 58.0508 38.5742 57.9609 38.3594C57.8711 38.1445 57.748 37.9473 57.5918 37.7676C57.4395 37.584 57.2441 37.4375 57.0059 37.3281C56.7715 37.2148 56.4863 37.1582 56.1504 37.1582C55.8262 37.1582 55.5469 37.2246 55.3125 37.3574C55.0781 37.4902 54.8828 37.6758 54.7266 37.9141C54.5742 38.1484 54.4609 38.4238 54.3867 38.7402C54.3125 39.0566 54.2754 39.4004 54.2754 39.7715Z" fill="#F2F0F2"/>
<path d="M68.9297 40.3398H69.6504C69.5918 40.9141 69.4336 41.4102 69.1758 41.8281C68.918 42.2422 68.5664 42.5605 68.1211 42.7832C67.6758 43.0059 67.1387 43.1172 66.5098 43.1172C66.0254 43.1172 65.5859 43.0254 65.1914 42.8418C64.8008 42.6582 64.4648 42.3984 64.1836 42.0625C63.9023 41.7227 63.6855 41.3164 63.5332 40.8438C63.3809 40.3711 63.3047 39.8457 63.3047 39.2676V38.2012C63.3047 37.623 63.3809 37.0996 63.5332 36.6309C63.6855 36.1582 63.9043 35.752 64.1895 35.4121C64.4746 35.0723 64.8164 34.8105 65.2148 34.627C65.6133 34.4434 66.0625 34.3516 66.5625 34.3516C67.168 34.3516 67.6914 34.4629 68.1328 34.6855C68.5742 34.9043 68.9219 35.2207 69.1758 35.6348C69.4336 36.0488 69.5918 36.5488 69.6504 37.1348H68.9297C68.875 36.6738 68.7539 36.2832 68.5664 35.9629C68.3789 35.6426 68.1191 35.3984 67.7871 35.2305C67.459 35.0586 67.0508 34.9727 66.5625 34.9727C66.1641 34.9727 65.8086 35.0488 65.4961 35.2012C65.1836 35.3535 64.918 35.5723 64.6992 35.8574C64.4805 36.1387 64.3125 36.4766 64.1953 36.8711C64.082 37.2656 64.0254 37.7051 64.0254 38.1895V39.2676C64.0254 39.7363 64.0801 40.168 64.1895 40.5625C64.2988 40.957 64.459 41.2988 64.6699 41.5879C64.8848 41.877 65.1465 42.1016 65.4551 42.2617C65.7637 42.4219 66.1152 42.502 66.5098 42.502C67.0137 42.502 67.4336 42.4219 67.7695 42.2617C68.1094 42.0977 68.373 41.8555 68.5605 41.5352C68.748 41.2148 68.8711 40.8164 68.9297 40.3398ZM70.8574 39.9297V39.7363C70.8574 39.2754 70.9238 38.8496 71.0566 38.459C71.1895 38.0684 71.3789 37.7305 71.625 37.4453C71.875 37.1602 72.1738 36.9395 72.5215 36.7832C72.8691 36.623 73.2559 36.543 73.6816 36.543C74.1113 36.543 74.5 36.623 74.8477 36.7832C75.1953 36.9395 75.4941 37.1602 75.7441 37.4453C75.9941 37.7305 76.1855 38.0684 76.3184 38.459C76.4512 38.8496 76.5176 39.2754 76.5176 39.7363V39.9297C76.5176 40.3906 76.4512 40.8164 76.3184 41.207C76.1855 41.5938 75.9941 41.9297 75.7441 42.2148C75.498 42.5 75.2012 42.7227 74.8535 42.8828C74.5059 43.0391 74.1191 43.1172 73.6934 43.1172C73.2637 43.1172 72.875 43.0391 72.5273 42.8828C72.1797 42.7227 71.8809 42.5 71.6309 42.2148C71.3809 41.9297 71.1895 41.5938 71.0566 41.207C70.9238 40.8164 70.8574 40.3906 70.8574 39.9297ZM71.5547 39.7363V39.9297C71.5547 40.2773 71.6016 40.6074 71.6953 40.9199C71.7891 41.2285 71.9258 41.5039 72.1055 41.7461C72.2852 41.9844 72.5078 42.1719 72.7734 42.3086C73.0391 42.4453 73.3457 42.5137 73.6934 42.5137C74.0371 42.5137 74.3398 42.4453 74.6016 42.3086C74.8672 42.1719 75.0898 41.9844 75.2695 41.7461C75.4492 41.5039 75.584 41.2285 75.6738 40.9199C75.7676 40.6074 75.8145 40.2773 75.8145 39.9297V39.7363C75.8145 39.3926 75.7676 39.0664 75.6738 38.7578C75.584 38.4492 75.4473 38.1738 75.2637 37.9316C75.084 37.6895 74.8613 37.498 74.5957 37.3574C74.3301 37.2168 74.0254 37.1465 73.6816 37.1465C73.3379 37.1465 73.0332 37.2168 72.7676 37.3574C72.5059 37.498 72.2832 37.6895 72.0996 37.9316C71.9199 38.1738 71.7832 38.4492 71.6895 38.7578C71.5996 39.0664 71.5547 39.3926 71.5547 39.7363ZM78.668 38.0137V43H77.9707V36.6602H78.6387L78.668 38.0137ZM78.5098 39.4375L78.1992 39.2617C78.2227 38.8867 78.2988 38.5352 78.4277 38.207C78.5566 37.8789 78.7305 37.5898 78.9492 37.3398C79.1719 37.0898 79.4316 36.8945 79.7285 36.7539C80.0293 36.6133 80.3613 36.543 80.7246 36.543C81.041 36.543 81.3242 36.5859 81.5742 36.6719C81.8242 36.7578 82.0371 36.8945 82.2129 37.082C82.3887 37.2695 82.5215 37.5098 82.6113 37.8027C82.7051 38.0957 82.752 38.4531 82.752 38.875V43H82.0488V38.8691C82.0488 38.4316 81.9883 38.0898 81.8672 37.8438C81.7461 37.5938 81.5742 37.416 81.3516 37.3105C81.1289 37.2051 80.8652 37.1523 80.5605 37.1523C80.2246 37.1523 79.9297 37.2266 79.6758 37.375C79.4258 37.5195 79.2148 37.709 79.043 37.9434C78.875 38.1738 78.7461 38.4219 78.6562 38.6875C78.5664 38.9492 78.5176 39.1992 78.5098 39.4375ZM86.9648 36.6602V37.2344H83.7891V36.6602H86.9648ZM84.9551 35.0312H85.6523V41.459C85.6523 41.752 85.6914 41.9727 85.7695 42.1211C85.8477 42.2695 85.9492 42.3691 86.0742 42.4199C86.1992 42.4707 86.334 42.4961 86.4785 42.4961C86.584 42.4961 86.6855 42.4902 86.7832 42.4785C86.8809 42.4629 86.9688 42.4473 87.0469 42.4316L87.0762 43.0234C86.9902 43.0508 86.8789 43.0723 86.7422 43.0879C86.6055 43.1074 86.4688 43.1172 86.332 43.1172C86.0625 43.1172 85.8242 43.0684 85.6172 42.9707C85.4102 42.8691 85.248 42.6973 85.1309 42.4551C85.0137 42.209 84.9551 41.875 84.9551 41.4531V35.0312ZM92.291 41.8633V38.5938C92.291 38.293 92.2285 38.0332 92.1035 37.8145C91.9785 37.5957 91.7949 37.4277 91.5527 37.3105C91.3105 37.1934 91.0117 37.1348 90.6562 37.1348C90.3281 37.1348 90.0352 37.1934 89.7773 37.3105C89.5234 37.4238 89.3223 37.5781 89.1738 37.7734C89.0293 37.9648 88.957 38.1777 88.957 38.4121L88.2539 38.4062C88.2539 38.168 88.3125 37.9375 88.4297 37.7148C88.5469 37.4922 88.7129 37.293 88.9277 37.1172C89.1426 36.9414 89.3984 36.8027 89.6953 36.7012C89.9961 36.5957 90.3262 36.543 90.6855 36.543C91.1387 36.543 91.5371 36.6191 91.8809 36.7715C92.2285 36.9238 92.5 37.1523 92.6953 37.457C92.8906 37.7617 92.9883 38.1445 92.9883 38.6055V41.6699C92.9883 41.8887 93.0039 42.1152 93.0352 42.3496C93.0703 42.584 93.1191 42.7773 93.1816 42.9297V43H92.4375C92.3906 42.8594 92.3535 42.6836 92.3262 42.4727C92.3027 42.2578 92.291 42.0547 92.291 41.8633ZM92.4551 39.3086L92.4668 39.8477H91.0898C90.7305 39.8477 90.4082 39.8809 90.123 39.9473C89.8418 40.0098 89.6035 40.1035 89.4082 40.2285C89.2129 40.3496 89.0625 40.4961 88.957 40.668C88.8555 40.8398 88.8047 41.0352 88.8047 41.2539C88.8047 41.4805 88.8613 41.6875 88.9746 41.875C89.0918 42.0625 89.2559 42.2129 89.4668 42.3262C89.6816 42.4355 89.9355 42.4902 90.2285 42.4902C90.6191 42.4902 90.9629 42.418 91.2598 42.2734C91.5605 42.1289 91.8086 41.9395 92.0039 41.7051C92.1992 41.4707 92.3301 41.2148 92.3965 40.9375L92.7012 41.3418C92.6504 41.5371 92.5566 41.7383 92.4199 41.9453C92.2871 42.1484 92.1133 42.3398 91.8984 42.5195C91.6836 42.6953 91.4297 42.8398 91.1367 42.9531C90.8477 43.0625 90.5195 43.1172 90.1523 43.1172C89.7383 43.1172 89.377 43.0391 89.0684 42.8828C88.7637 42.7266 88.5254 42.5137 88.3535 42.2441C88.1855 41.9707 88.1016 41.6621 88.1016 41.3184C88.1016 41.0059 88.168 40.7266 88.3008 40.4805C88.4336 40.2305 88.625 40.0195 88.875 39.8477C89.1289 39.6719 89.4336 39.5391 89.7891 39.4492C90.1484 39.3555 90.5508 39.3086 90.9961 39.3086H92.4551ZM97.207 42.5137C97.5039 42.5137 97.7812 42.459 98.0391 42.3496C98.3008 42.2363 98.5156 42.0703 98.6836 41.8516C98.8555 41.6289 98.9531 41.3574 98.9766 41.0371H99.6445C99.625 41.4395 99.502 41.7988 99.2754 42.1152C99.0527 42.4277 98.7598 42.6738 98.3965 42.8535C98.0371 43.0293 97.6406 43.1172 97.207 43.1172C96.7656 43.1172 96.375 43.0371 96.0352 42.877C95.6992 42.7168 95.418 42.4941 95.1914 42.209C94.9648 41.9199 94.793 41.584 94.6758 41.2012C94.5625 40.8145 94.5059 40.3984 94.5059 39.9531V39.707C94.5059 39.2617 94.5625 38.8477 94.6758 38.4648C94.793 38.0781 94.9648 37.7422 95.1914 37.457C95.418 37.168 95.6992 36.9434 96.0352 36.7832C96.3711 36.623 96.7598 36.543 97.2012 36.543C97.6543 36.543 98.0605 36.6348 98.4199 36.8184C98.7832 37.002 99.0723 37.2617 99.2871 37.5977C99.5059 37.9336 99.625 38.332 99.6445 38.793H98.9766C98.957 38.4531 98.8672 38.1602 98.707 37.9141C98.5469 37.668 98.3359 37.4785 98.0742 37.3457C97.8125 37.2129 97.5215 37.1465 97.2012 37.1465C96.8418 37.1465 96.5352 37.2168 96.2812 37.3574C96.0273 37.4941 95.8203 37.6836 95.6602 37.9258C95.5039 38.1641 95.3887 38.4375 95.3145 38.7461C95.2402 39.0508 95.2031 39.3711 95.2031 39.707V39.9531C95.2031 40.293 95.2383 40.6172 95.3086 40.9258C95.3828 41.2305 95.498 41.502 95.6543 41.7402C95.8145 41.9785 96.0215 42.168 96.2754 42.3086C96.5332 42.4453 96.8438 42.5137 97.207 42.5137ZM103.453 36.6602V37.2344H100.277V36.6602H103.453ZM101.443 35.0312H102.141V41.459C102.141 41.752 102.18 41.9727 102.258 42.1211C102.336 42.2695 102.438 42.3691 102.562 42.4199C102.688 42.4707 102.822 42.4961 102.967 42.4961C103.072 42.4961 103.174 42.4902 103.271 42.4785C103.369 42.4629 103.457 42.4473 103.535 42.4316L103.564 43.0234C103.479 43.0508 103.367 43.0723 103.23 43.0879C103.094 43.1074 102.957 43.1172 102.82 43.1172C102.551 43.1172 102.312 43.0684 102.105 42.9707C101.898 42.8691 101.736 42.6973 101.619 42.4551C101.502 42.209 101.443 41.875 101.443 41.4531V35.0312ZM108.721 41.3828C108.721 41.2109 108.678 41.041 108.592 40.873C108.506 40.7051 108.34 40.5508 108.094 40.4102C107.852 40.2695 107.494 40.1504 107.021 40.0527C106.67 39.9746 106.355 39.8867 106.078 39.7891C105.805 39.6914 105.574 39.5742 105.387 39.4375C105.199 39.3008 105.057 39.1367 104.959 38.9453C104.861 38.7539 104.812 38.5273 104.812 38.2656C104.812 38.0312 104.863 37.8105 104.965 37.6035C105.07 37.3926 105.219 37.209 105.41 37.0527C105.605 36.8926 105.84 36.7676 106.113 36.6777C106.391 36.5879 106.701 36.543 107.045 36.543C107.533 36.543 107.951 36.627 108.299 36.7949C108.65 36.959 108.918 37.1836 109.102 37.4688C109.289 37.7539 109.383 38.0762 109.383 38.4355H108.686C108.686 38.2168 108.621 38.0098 108.492 37.8145C108.367 37.6191 108.182 37.459 107.936 37.334C107.693 37.209 107.396 37.1465 107.045 37.1465C106.682 37.1465 106.387 37.2012 106.16 37.3105C105.934 37.4199 105.768 37.5586 105.662 37.7266C105.561 37.8945 105.51 38.0684 105.51 38.248C105.51 38.3887 105.531 38.5176 105.574 38.6348C105.621 38.748 105.703 38.8535 105.82 38.9512C105.941 39.0488 106.113 39.1406 106.336 39.2266C106.559 39.3125 106.848 39.3965 107.203 39.4785C107.715 39.5918 108.133 39.7305 108.457 39.8945C108.785 40.0547 109.027 40.2539 109.184 40.4922C109.34 40.7266 109.418 41.0117 109.418 41.3477C109.418 41.6094 109.363 41.8496 109.254 42.0684C109.145 42.2832 108.986 42.4688 108.779 42.625C108.576 42.7812 108.33 42.9023 108.041 42.9883C107.756 43.0742 107.436 43.1172 107.08 43.1172C106.545 43.1172 106.092 43.0293 105.721 42.8535C105.354 42.6738 105.074 42.4395 104.883 42.1504C104.695 41.8574 104.602 41.5469 104.602 41.2188H105.299C105.322 41.5469 105.426 41.8066 105.609 41.998C105.793 42.1855 106.018 42.3184 106.283 42.3965C106.553 42.4746 106.818 42.5137 107.08 42.5137C107.439 42.5137 107.74 42.4609 107.982 42.3555C108.225 42.25 108.408 42.1113 108.533 41.9395C108.658 41.7676 108.721 41.582 108.721 41.3828Z" fill="#F20C60"/>
<path d="M114.598 37.9727V43H113.895V36.6602H114.568L114.598 37.9727ZM114.469 39.4375L114.129 39.2617C114.152 38.8867 114.223 38.5352 114.34 38.207C114.461 37.8789 114.629 37.5898 114.844 37.3398C115.059 37.0898 115.316 36.8945 115.617 36.7539C115.918 36.6133 116.26 36.543 116.643 36.543C116.951 36.543 117.23 36.5859 117.48 36.6719C117.734 36.7539 117.949 36.8848 118.125 37.0645C118.305 37.2402 118.443 37.4707 118.541 37.7559C118.639 38.041 118.688 38.3828 118.688 38.7812V43H117.99V38.8047C117.99 38.3828 117.924 38.0527 117.791 37.8145C117.662 37.5762 117.48 37.4062 117.246 37.3047C117.016 37.2031 116.748 37.1523 116.443 37.1523C116.084 37.1523 115.779 37.2266 115.529 37.375C115.283 37.5195 115.082 37.709 114.926 37.9434C114.773 38.1738 114.66 38.4219 114.586 38.6875C114.512 38.9492 114.473 39.1992 114.469 39.4375ZM118.682 38.8867L118.213 38.8984C118.232 38.5898 118.303 38.2949 118.424 38.0137C118.549 37.7324 118.719 37.4824 118.934 37.2637C119.148 37.041 119.404 36.8652 119.701 36.7363C120.002 36.6074 120.34 36.543 120.715 36.543C121.043 36.543 121.336 36.5879 121.594 36.6777C121.852 36.7637 122.068 36.9023 122.244 37.0938C122.424 37.2812 122.561 37.5215 122.654 37.8145C122.748 38.1074 122.795 38.459 122.795 38.8691V43H122.092V38.8633C122.092 38.4141 122.025 38.0664 121.893 37.8203C121.764 37.5703 121.584 37.3965 121.354 37.2988C121.123 37.2012 120.854 37.1523 120.545 37.1523C120.24 37.1562 119.973 37.2129 119.742 37.3223C119.512 37.4277 119.318 37.5684 119.162 37.7441C119.01 37.916 118.893 38.1016 118.811 38.3008C118.732 38.5 118.689 38.6953 118.682 38.8867ZM128.432 41.8633V38.5938C128.432 38.293 128.369 38.0332 128.244 37.8145C128.119 37.5957 127.936 37.4277 127.693 37.3105C127.451 37.1934 127.152 37.1348 126.797 37.1348C126.469 37.1348 126.176 37.1934 125.918 37.3105C125.664 37.4238 125.463 37.5781 125.314 37.7734C125.17 37.9648 125.098 38.1777 125.098 38.4121L124.395 38.4062C124.395 38.168 124.453 37.9375 124.57 37.7148C124.688 37.4922 124.854 37.293 125.068 37.1172C125.283 36.9414 125.539 36.8027 125.836 36.7012C126.137 36.5957 126.467 36.543 126.826 36.543C127.279 36.543 127.678 36.6191 128.021 36.7715C128.369 36.9238 128.641 37.1523 128.836 37.457C129.031 37.7617 129.129 38.1445 129.129 38.6055V41.6699C129.129 41.8887 129.145 42.1152 129.176 42.3496C129.211 42.584 129.26 42.7773 129.322 42.9297V43H128.578C128.531 42.8594 128.494 42.6836 128.467 42.4727C128.443 42.2578 128.432 42.0547 128.432 41.8633ZM128.596 39.3086L128.607 39.8477H127.23C126.871 39.8477 126.549 39.8809 126.264 39.9473C125.982 40.0098 125.744 40.1035 125.549 40.2285C125.354 40.3496 125.203 40.4961 125.098 40.668C124.996 40.8398 124.945 41.0352 124.945 41.2539C124.945 41.4805 125.002 41.6875 125.115 41.875C125.232 42.0625 125.396 42.2129 125.607 42.3262C125.822 42.4355 126.076 42.4902 126.369 42.4902C126.76 42.4902 127.104 42.418 127.4 42.2734C127.701 42.1289 127.949 41.9395 128.145 41.7051C128.34 41.4707 128.471 41.2148 128.537 40.9375L128.842 41.3418C128.791 41.5371 128.697 41.7383 128.561 41.9453C128.428 42.1484 128.254 42.3398 128.039 42.5195C127.824 42.6953 127.57 42.8398 127.277 42.9531C126.988 43.0625 126.66 43.1172 126.293 43.1172C125.879 43.1172 125.518 43.0391 125.209 42.8828C124.904 42.7266 124.666 42.5137 124.494 42.2441C124.326 41.9707 124.242 41.6621 124.242 41.3184C124.242 41.0059 124.309 40.7266 124.441 40.4805C124.574 40.2305 124.766 40.0195 125.016 39.8477C125.27 39.6719 125.574 39.5391 125.93 39.4492C126.289 39.3555 126.691 39.3086 127.137 39.3086H128.596ZM131.707 38.0137V43H131.01V36.6602H131.678L131.707 38.0137ZM131.549 39.4375L131.238 39.2617C131.262 38.8867 131.338 38.5352 131.467 38.207C131.596 37.8789 131.77 37.5898 131.988 37.3398C132.211 37.0898 132.471 36.8945 132.768 36.7539C133.068 36.6133 133.4 36.543 133.764 36.543C134.08 36.543 134.363 36.5859 134.613 36.6719C134.863 36.7578 135.076 36.8945 135.252 37.082C135.428 37.2695 135.561 37.5098 135.65 37.8027C135.744 38.0957 135.791 38.4531 135.791 38.875V43H135.088V38.8691C135.088 38.4316 135.027 38.0898 134.906 37.8438C134.785 37.5938 134.613 37.416 134.391 37.3105C134.168 37.2051 133.904 37.1523 133.6 37.1523C133.264 37.1523 132.969 37.2266 132.715 37.375C132.465 37.5195 132.254 37.709 132.082 37.9434C131.914 38.1738 131.785 38.4219 131.695 38.6875C131.605 38.9492 131.557 39.1992 131.549 39.4375ZM141.463 41.8633V38.5938C141.463 38.293 141.4 38.0332 141.275 37.8145C141.15 37.5957 140.967 37.4277 140.725 37.3105C140.482 37.1934 140.184 37.1348 139.828 37.1348C139.5 37.1348 139.207 37.1934 138.949 37.3105C138.695 37.4238 138.494 37.5781 138.346 37.7734C138.201 37.9648 138.129 38.1777 138.129 38.4121L137.426 38.4062C137.426 38.168 137.484 37.9375 137.602 37.7148C137.719 37.4922 137.885 37.293 138.1 37.1172C138.314 36.9414 138.57 36.8027 138.867 36.7012C139.168 36.5957 139.498 36.543 139.857 36.543C140.311 36.543 140.709 36.6191 141.053 36.7715C141.4 36.9238 141.672 37.1523 141.867 37.457C142.062 37.7617 142.16 38.1445 142.16 38.6055V41.6699C142.16 41.8887 142.176 42.1152 142.207 42.3496C142.242 42.584 142.291 42.7773 142.354 42.9297V43H141.609C141.562 42.8594 141.525 42.6836 141.498 42.4727C141.475 42.2578 141.463 42.0547 141.463 41.8633ZM141.627 39.3086L141.639 39.8477H140.262C139.902 39.8477 139.58 39.8809 139.295 39.9473C139.014 40.0098 138.775 40.1035 138.58 40.2285C138.385 40.3496 138.234 40.4961 138.129 40.668C138.027 40.8398 137.977 41.0352 137.977 41.2539C137.977 41.4805 138.033 41.6875 138.146 41.875C138.264 42.0625 138.428 42.2129 138.639 42.3262C138.854 42.4355 139.107 42.4902 139.4 42.4902C139.791 42.4902 140.135 42.418 140.432 42.2734C140.732 42.1289 140.98 41.9395 141.176 41.7051C141.371 41.4707 141.502 41.2148 141.568 40.9375L141.873 41.3418C141.822 41.5371 141.729 41.7383 141.592 41.9453C141.459 42.1484 141.285 42.3398 141.07 42.5195C140.855 42.6953 140.602 42.8398 140.309 42.9531C140.02 43.0625 139.691 43.1172 139.324 43.1172C138.91 43.1172 138.549 43.0391 138.24 42.8828C137.936 42.7266 137.697 42.5137 137.525 42.2441C137.357 41.9707 137.273 41.6621 137.273 41.3184C137.273 41.0059 137.34 40.7266 137.473 40.4805C137.605 40.2305 137.797 40.0195 138.047 39.8477C138.301 39.6719 138.605 39.5391 138.961 39.4492C139.32 39.3555 139.723 39.3086 140.168 39.3086H141.627ZM148.213 36.6602H148.863V42.8887C148.863 43.4395 148.758 43.9121 148.547 44.3066C148.34 44.7012 148.045 45.0039 147.662 45.2148C147.283 45.4258 146.836 45.5312 146.32 45.5312C146.059 45.5312 145.789 45.4902 145.512 45.4082C145.238 45.3301 144.979 45.209 144.732 45.0449C144.49 44.8848 144.283 44.6855 144.111 44.4473L144.504 44.0195C144.762 44.332 145.037 44.5605 145.33 44.7051C145.623 44.8535 145.939 44.9277 146.279 44.9277C146.682 44.9277 147.021 44.8477 147.299 44.6875C147.58 44.5273 147.793 44.2969 147.938 43.9961C148.086 43.6953 148.16 43.334 148.16 42.9121V38.0547L148.213 36.6602ZM143.76 39.8945V39.7715C143.76 39.2793 143.814 38.8359 143.924 38.4414C144.037 38.043 144.199 37.7031 144.41 37.4219C144.621 37.1367 144.877 36.9199 145.178 36.7715C145.482 36.6191 145.826 36.543 146.209 36.543C146.576 36.543 146.902 36.6035 147.188 36.7246C147.473 36.8457 147.719 37.0195 147.926 37.2461C148.133 37.4727 148.299 37.7422 148.424 38.0547C148.553 38.3672 148.646 38.7148 148.705 39.0977V40.6621C148.658 41.0215 148.572 41.3516 148.447 41.6523C148.322 41.9492 148.156 42.209 147.949 42.4316C147.742 42.6504 147.492 42.8203 147.199 42.9414C146.91 43.0586 146.576 43.1172 146.197 43.1172C145.818 43.1172 145.479 43.0391 145.178 42.8828C144.877 42.7266 144.621 42.5059 144.41 42.2207C144.199 41.9316 144.037 41.5898 143.924 41.1953C143.814 40.8008 143.76 40.3672 143.76 39.8945ZM144.463 39.7715V39.8945C144.463 40.2656 144.5 40.6094 144.574 40.9258C144.648 41.2422 144.762 41.5176 144.914 41.752C145.066 41.9863 145.26 42.1699 145.494 42.3027C145.729 42.4355 146.004 42.502 146.32 42.502C146.723 42.502 147.061 42.4258 147.334 42.2734C147.607 42.1172 147.824 41.9121 147.984 41.6582C148.145 41.4004 148.262 41.1191 148.336 40.8145V38.9922C148.293 38.7852 148.227 38.5742 148.137 38.3594C148.051 38.1445 147.93 37.9473 147.773 37.7676C147.621 37.584 147.426 37.4375 147.188 37.3281C146.953 37.2148 146.668 37.1582 146.332 37.1582C146.012 37.1582 145.732 37.2246 145.494 37.3574C145.26 37.4902 145.066 37.6758 144.914 37.9141C144.762 38.1484 144.648 38.4238 144.574 38.7402C144.5 39.0566 144.463 39.4004 144.463 39.7715ZM153.146 43.1172C152.732 43.1172 152.352 43.041 152.004 42.8887C151.66 42.7363 151.359 42.5215 151.102 42.2441C150.848 41.9668 150.65 41.6387 150.51 41.2598C150.373 40.877 150.305 40.459 150.305 40.0059V39.7539C150.305 39.2656 150.377 38.8242 150.521 38.4297C150.666 38.0352 150.865 37.6973 151.119 37.416C151.373 37.1348 151.662 36.9199 151.986 36.7715C152.314 36.6191 152.658 36.543 153.018 36.543C153.42 36.543 153.777 36.6152 154.09 36.7598C154.402 36.9004 154.664 37.1016 154.875 37.3633C155.09 37.6211 155.252 37.9277 155.361 38.2832C155.471 38.6348 155.525 39.0234 155.525 39.4492V39.877H150.727V39.2793H154.828V39.1973C154.82 38.8418 154.748 38.5098 154.611 38.2012C154.479 37.8887 154.279 37.6348 154.014 37.4395C153.748 37.2441 153.416 37.1465 153.018 37.1465C152.721 37.1465 152.447 37.209 152.197 37.334C151.951 37.459 151.738 37.6387 151.559 37.873C151.383 38.1035 151.246 38.3789 151.148 38.6992C151.055 39.0156 151.008 39.3672 151.008 39.7539V40.0059C151.008 40.3574 151.059 40.6855 151.16 40.9902C151.266 41.291 151.414 41.5566 151.605 41.7871C151.801 42.0176 152.031 42.1973 152.297 42.3262C152.562 42.4551 152.855 42.5195 153.176 42.5195C153.551 42.5195 153.883 42.4512 154.172 42.3145C154.461 42.1738 154.721 41.9531 154.951 41.6523L155.391 41.9922C155.254 42.1953 155.082 42.3828 154.875 42.5547C154.672 42.7266 154.428 42.8633 154.143 42.9648C153.857 43.0664 153.525 43.1172 153.146 43.1172ZM157.605 37.709V43H156.908V36.6602H157.588L157.605 37.709ZM159.85 36.6133L159.832 37.2578C159.754 37.2461 159.678 37.2363 159.604 37.2285C159.529 37.2207 159.449 37.2168 159.363 37.2168C159.059 37.2168 158.791 37.2734 158.561 37.3867C158.334 37.4961 158.143 37.6504 157.986 37.8496C157.83 38.0449 157.711 38.2754 157.629 38.541C157.547 38.8027 157.5 39.084 157.488 39.3848L157.23 39.4844C157.23 39.0703 157.273 38.6855 157.359 38.3301C157.445 37.9746 157.576 37.6641 157.752 37.3984C157.932 37.1289 158.156 36.9199 158.426 36.7715C158.699 36.6191 159.02 36.543 159.387 36.543C159.477 36.543 159.564 36.5508 159.65 36.5664C159.74 36.5781 159.807 36.5938 159.85 36.6133Z" fill="#F2F0F2"/>
</svg>
